<svg width="111" height="49" viewBox="0 0 111 49" fill="none" xmlns="http://www.w3.org/2000/svg">
<path d="M54.858 16.2829H53.1494V6.23196H55.1524L57.9523 12.1261C58.2322 12.7148 58.4189 13.1599 58.6271 13.8132L58.7779 13.7988C58.6917 13.0163 58.6486 12.4276 58.6486 11.7815V6.23196H60.3645V16.2829H58.3902L55.6118 10.4677C55.3175 9.85028 55.1165 9.34056 54.8867 8.65853L54.7432 8.68007C54.8293 9.49132 54.858 10.0585 54.858 10.7333V16.2829Z" fill="black"/>
<path d="M63.6095 16.4552C62.389 16.4552 61.6926 15.7516 61.6926 14.5598V14.5311C61.6926 12.9086 62.949 12.3199 64.3992 11.9538L65.8422 11.5877V10.9559C65.8422 10.1303 65.5048 9.75695 64.751 9.75695C63.8751 9.75695 63.4731 10.3169 63.5592 11.523L61.8577 11.3364C61.7501 9.59901 62.791 8.57238 64.7869 8.57238C66.6247 8.57238 67.5652 9.36928 67.5652 10.9272V14.5886C67.5652 15.1342 67.6514 15.2132 68.3119 15.2419L68.0821 16.4193C67.9816 16.4408 67.8165 16.4552 67.6801 16.4552C66.3089 16.4552 65.993 15.9024 66.273 14.5239L66.1294 14.4952C65.7776 15.7731 64.9304 16.4552 63.6095 16.4552ZM64.2484 15.1844C65.1674 15.1844 65.8422 14.4019 65.8422 13.2819V12.7722L64.9448 13.0235C64.0546 13.2748 63.4444 13.6409 63.4444 14.3732V14.4019C63.4444 14.9116 63.7243 15.1844 64.2484 15.1844Z" fill="black"/>
<path d="M71.7148 16.448C70.3507 16.448 69.6472 15.7588 69.6472 14.2799V10.0154H68.5847V8.74468H69.6472V7.03603L71.3989 6.51195V8.74468H73.3732V10.0154H71.3989V14.0717C71.3989 14.7896 71.6933 15.0696 72.2891 15.0696C72.6122 15.0696 73.0142 14.9834 73.3947 14.8183L73.2942 16.0962C72.8994 16.3044 72.2891 16.448 71.7148 16.448Z" fill="black"/>
<path d="M76.3239 7.82574H74.4214V6.34683H76.3239V7.82574ZM76.2449 16.2829H74.4932V8.74468H76.2449V16.2829Z" fill="black"/>
<path d="M80.775 16.4623C78.693 16.4623 77.5371 14.9978 77.5371 12.5927V12.4348C77.5371 10.0154 78.693 8.5652 80.775 8.5652C82.8569 8.5652 84.0128 10.0154 84.0128 12.4348V12.5927C84.0128 14.9978 82.8498 16.4623 80.775 16.4623ZM80.775 15.2562C81.737 15.2562 82.2108 14.4809 82.2108 12.8512V12.1763C82.2108 10.5467 81.737 9.76413 80.775 9.76413C79.8058 9.76413 79.3391 10.5467 79.3391 12.1763V12.8512C79.3391 14.4809 79.8058 15.2562 80.775 15.2562Z" fill="black"/>
<path d="M87.0568 16.2829H85.305V8.74468H87.0568C87.0424 9.28312 86.9491 9.78567 86.6547 10.6687L86.8055 10.7261C87.3798 9.25441 88.227 8.61546 89.39 8.61546C90.711 8.61546 91.3858 9.3262 91.3858 10.6831V16.2829H89.6413V11.042C89.6413 10.2739 89.2967 9.85746 88.6649 9.85746C87.7029 9.85746 87.0568 10.9056 87.0568 12.4635V16.2829Z" fill="black"/>
<path d="M94.5088 16.4552C93.2883 16.4552 92.5919 15.7516 92.5919 14.5598V14.5311C92.5919 12.9086 93.8483 12.3199 95.2985 11.9538L96.7415 11.5877V10.9559C96.7415 10.1303 96.4041 9.75695 95.6503 9.75695C94.7744 9.75695 94.3724 10.3169 94.4585 11.523L92.7571 11.3364C92.6494 9.59901 93.6904 8.57238 95.6862 8.57238C97.5241 8.57238 98.4645 9.36928 98.4645 10.9272V14.5886C98.4645 15.1342 98.5507 15.2132 99.2112 15.2419L98.9814 16.4193C98.8809 16.4408 98.7158 16.4552 98.5794 16.4552C97.2082 16.4552 96.8923 15.9024 97.1723 14.5239L97.0287 14.4952C96.6769 15.7731 95.8298 16.4552 94.5088 16.4552ZM95.1477 15.1844C96.0667 15.1844 96.7415 14.4019 96.7415 13.2819V12.7722L95.8441 13.0235C94.9539 13.2748 94.3437 13.6409 94.3437 14.3732V14.4019C94.3437 14.9116 94.6236 15.1844 95.1477 15.1844Z" fill="black"/>
<path d="M101.961 16.2829H100.209V6.23196H101.961V16.2829Z" fill="black"/>
<path d="M54.9298 29.6627H53.1494V19.6118H58.8784V21.0548H54.9298V23.7973H58.541V25.147H54.9298V29.6627Z" fill="black"/>
<path d="M61.9367 21.2056H60.0342V19.7267H61.9367V21.2056ZM61.8577 29.6627H60.106V22.1245H61.8577V29.6627Z" fill="black"/>
<path d="M65.1602 29.6627H63.4085V22.1245H65.1602C65.1458 22.663 65.0525 23.1655 64.7581 24.0486L64.9089 24.106C65.4832 22.6343 66.3304 21.9953 67.4934 21.9953C68.8144 21.9953 69.4893 22.7061 69.4893 24.0629V29.6627H67.7447V24.4219C67.7447 23.6537 67.4001 23.2373 66.7683 23.2373C65.8063 23.2373 65.1602 24.2855 65.1602 25.8434V29.6627Z" fill="black"/>
<path d="M72.6122 29.835C71.3917 29.835 70.6954 29.1315 70.6954 27.9397V27.911C70.6954 26.2885 71.9517 25.6998 73.4019 25.3337L74.8449 24.9675V24.3357C74.8449 23.5101 74.5075 23.1368 73.7537 23.1368C72.8778 23.1368 72.4758 23.6968 72.562 24.9029L70.8605 24.7162C70.7528 22.9789 71.7938 21.9522 73.7896 21.9522C75.6275 21.9522 76.5679 22.7491 76.5679 24.307V27.9684C76.5679 28.514 76.6541 28.593 77.3146 28.6217L77.0849 29.7991C76.9843 29.8207 76.8192 29.835 76.6828 29.835C75.3116 29.835 74.9957 29.2822 75.2757 27.9038L75.1321 27.8751C74.7803 29.153 73.9332 29.835 72.6122 29.835ZM73.2512 28.5643C74.1701 28.5643 74.8449 27.7818 74.8449 26.6618V26.1521L73.9475 26.4034C73.0573 26.6546 72.4471 27.0208 72.4471 27.753V27.7818C72.4471 28.2915 72.7271 28.5643 73.2512 28.5643Z" fill="black"/>
<path d="M80.0642 29.6627H78.3125V22.1245H80.0642C80.0499 22.663 79.9565 23.1655 79.6622 24.0486L79.813 24.106C80.3873 22.6343 81.2344 21.9953 82.3975 21.9953C83.7184 21.9953 84.3933 22.7061 84.3933 24.0629V29.6627H82.6487V24.4219C82.6487 23.6537 82.3041 23.2373 81.6724 23.2373C80.7104 23.2373 80.0642 24.2855 80.0642 25.8434V29.6627Z" fill="black"/>
<path d="M88.8803 29.8422C86.7624 29.8422 85.664 28.4781 85.664 25.8649V25.8362C85.664 23.2804 86.7911 21.9451 88.8875 21.9451C90.7828 21.9451 91.795 22.9502 91.9458 24.8526L90.2013 25.0608C90.1223 23.747 89.7203 23.144 88.8803 23.144C87.9183 23.144 87.466 23.9193 87.466 25.549V26.1521C87.466 27.832 87.9326 28.6289 88.9018 28.6289C89.7274 28.6289 90.1654 28.0259 90.2443 26.8126L92.032 27.0351C91.8238 28.8658 90.7469 29.8422 88.8803 29.8422Z" fill="black"/>
<path d="M97.7394 27.0495L99.4194 27.2649C99.1609 28.9807 98.0697 29.835 96.2605 29.835C94.1857 29.835 93.0442 28.5571 93.0442 26.2311V25.5634C93.0442 23.2373 94.1929 21.9522 96.3108 21.9522C98.285 21.9522 99.3835 23.1727 99.3835 25.348C99.3835 25.6854 99.3691 26.0013 99.3332 26.3675H94.7816V26.511C94.7816 27.9541 95.3129 28.6504 96.318 28.6504C97.1292 28.6504 97.603 28.191 97.7394 27.0495ZM96.2964 23.1368C95.32 23.1368 94.8175 23.8117 94.7816 25.1685H97.6461V24.9747C97.6461 23.7183 97.1938 23.1368 96.2964 23.1368Z" fill="black"/>
<path d="M56.8754 43.2221C54.2262 43.2221 52.855 41.4488 52.855 38.0315V38.0028C52.855 34.5927 54.2262 32.8122 56.8754 32.8122C59.5173 32.8122 60.8886 34.5927 60.8886 38.0028V38.0315C60.8886 41.4488 59.5173 43.2221 56.8754 43.2221ZM56.8754 41.8149C58.3543 41.8149 59.065 40.7093 59.065 38.4192V37.6797C59.065 35.3465 58.3543 34.2193 56.8682 34.2193C55.3893 34.2193 54.6714 35.3465 54.6714 37.6797V38.4192C54.6714 40.7093 55.3893 41.8149 56.8754 41.8149Z" fill="black"/>
<path d="M63.9972 43.0426H62.2454V32.9917H63.9972V43.0426Z" fill="black"/>
<path d="M65.2822 45.7276L65.0597 44.2343L66.036 44.141C66.876 44.062 67.156 43.8466 67.2493 43.4877L67.3427 43.1287L64.8874 35.5044H66.6894L67.7519 39.5607C67.9242 40.1996 68.0462 40.8314 68.1539 41.5852H68.3047C68.4124 40.8314 68.5344 40.214 68.7067 39.575L69.7405 35.5044H71.4492L69.2954 42.6764C68.6349 44.9164 67.795 45.584 65.2822 45.7276Z" fill="black"/>
<path d="M74.1055 43.0426H72.3538V35.5044H74.1127C74.127 35.9639 74.0409 36.3731 73.7106 37.3925L73.8542 37.4572C74.5291 35.9136 75.2254 35.3752 76.2521 35.3752C77.4079 35.3752 77.9392 36.1505 77.6592 37.4643L77.8028 37.5074C78.334 35.9998 79.1525 35.3752 80.2796 35.3752C81.5072 35.3752 82.0959 36.0572 82.0959 37.4572V43.0426H80.3442V37.7515C80.3442 37.0049 80.057 36.6315 79.4827 36.6315C78.6068 36.6315 78.1043 37.7084 78.1043 39.1514V43.0426H76.3597V37.7659C76.3597 37.0336 76.0582 36.6244 75.5126 36.6244C74.6655 36.6244 74.1055 37.6582 74.1055 39.1945V43.0426Z" fill="black"/>
<path d="M87.5665 35.3752C89.1746 35.3752 90.0218 36.6603 90.0218 39.1156V39.4314C90.0218 41.8867 89.1746 43.1718 87.5665 43.1718C86.2886 43.1718 85.5348 42.4036 85.1399 41.1832L84.9892 41.2406C85.2548 42.1595 85.3625 42.7985 85.3625 43.5092V45.5553H83.6107V35.5044H85.3553C85.3409 35.8777 85.2261 36.4808 84.9892 37.3064L85.1399 37.3566C85.542 36.0931 86.2958 35.3752 87.5665 35.3752ZM86.8773 36.5526C85.8937 36.5526 85.3625 37.4284 85.3625 39.0653V39.4745C85.3625 41.1186 85.8937 42.0016 86.8773 42.0016C87.7962 42.0016 88.2557 41.2047 88.2557 39.5463V38.9935C88.2557 37.3423 87.7962 36.5526 86.8773 36.5526Z" fill="black"/>
<path d="M93.1519 34.5855H91.2494V33.1066H93.1519V34.5855ZM93.0729 43.0426H91.3212V35.5044H93.0729V43.0426Z" fill="black"/>
<path d="M96.2174 43.2149C94.997 43.2149 94.3006 42.5113 94.3006 41.3196V41.2909C94.3006 39.6684 95.5569 39.0797 97.0071 38.7135L98.4502 38.3474V37.7156C98.4502 36.89 98.1127 36.5167 97.3589 36.5167C96.4831 36.5167 96.081 37.0767 96.1672 38.2828L94.4657 38.0961C94.358 36.3587 95.399 35.3321 97.3948 35.3321C99.2327 35.3321 100.173 36.129 100.173 37.6869V41.3483C100.173 41.8939 100.259 41.9729 100.92 42.0016L100.69 43.179C100.59 43.2005 100.424 43.2149 100.288 43.2149C98.9168 43.2149 98.6009 42.6621 98.8809 41.2837L98.7373 41.255C98.3856 42.5329 97.5384 43.2149 96.2174 43.2149ZM96.8564 41.9442C97.7753 41.9442 98.4502 41.1616 98.4502 40.0417V39.5319L97.5528 39.7832C96.6626 40.0345 96.0523 40.4006 96.0523 41.1329V41.1616C96.0523 41.6714 96.3323 41.9442 96.8564 41.9442Z" fill="black"/>
<path d="M103.842 43.1718C102.234 43.1718 101.386 41.8867 101.386 39.4314V39.1156C101.386 36.6603 102.234 35.3752 103.842 35.3752C105.12 35.3752 105.866 36.1434 106.268 37.3638L106.419 37.3064C106.146 36.3875 106.046 35.7485 106.046 35.0378V32.9917H107.79V43.0426H106.053C106.06 42.6693 106.182 42.0662 106.419 41.2406L106.268 41.1832C105.859 42.4539 105.112 43.1718 103.842 43.1718ZM104.531 41.9944C105.515 41.9944 106.046 41.1186 106.046 39.4817V39.0725C106.046 37.4284 105.515 36.5454 104.531 36.5454C103.605 36.5454 103.153 37.3423 103.153 39.0007V39.5535C103.153 41.2047 103.605 41.9944 104.531 41.9944Z" fill="black"/>
<path d="M21.4168 46.8211L21.1037 46.735L21.0176 47.0383L21.3385 47.1263C21.4266 47.1479 21.5127 47.097 21.5322 47.0128C21.5518 46.9287 21.5009 46.8426 21.4168 46.8211Z" fill="#183041"/>
<path d="M20.9763 45.5278C20.7943 45.0836 20.4636 44.8253 20.129 44.8312C19.902 45.1404 19.8256 45.6453 20.0076 46.0993C20.0624 46.2382 20.1368 46.3556 20.2209 46.4593C20.2209 46.4593 20.0565 46.4006 19.8902 46.3419C19.7239 46.2852 19.5614 46.2206 19.5614 46.2206L19.444 46.1756C19.628 45.8644 19.6632 45.4163 19.5262 45.0053C19.3755 44.5396 19.0566 44.2656 18.7219 44.2421C18.4714 44.5376 18.3658 45.0288 18.5145 45.5024C18.5595 45.6433 18.626 45.7666 18.7043 45.8742C18.7043 45.8742 18.5419 45.8057 18.3814 45.7372C18.221 45.6629 18.0624 45.5905 18.0624 45.5905L17.9489 45.5376C18.1544 45.2382 18.219 44.7979 18.1075 44.3752C17.9881 43.8977 17.6828 43.6081 17.3521 43.5611C17.084 43.839 16.945 44.3263 17.0644 44.8057C17.1016 44.9486 17.1583 45.0758 17.2308 45.1873C17.2308 45.1873 17.0742 45.1091 16.9176 45.0288C16.7631 44.9447 16.6085 44.8605 16.6085 44.8605L16.4989 44.7999C16.722 44.5161 16.8159 44.0758 16.7317 43.6492C16.6359 43.1756 16.3638 42.8449 16.0272 42.7901C15.7396 43.0543 15.5752 43.5259 15.6633 44.0093C15.6907 44.156 15.7396 44.2871 15.8022 44.4046L15.1995 44.0425L15.0938 43.974C15.3345 43.7059 15.4578 43.2715 15.403 42.8371C15.3717 42.5964 15.2914 42.3928 15.176 42.2402C15.0625 42.0856 14.9196 41.9741 14.7552 41.9349C14.4539 42.1776 14.2562 42.6394 14.311 43.1326C14.3267 43.2832 14.3678 43.4163 14.4265 43.5337C14.4265 43.5337 14.2778 43.4398 14.1369 43.3341C13.994 43.2324 13.8512 43.1287 13.8512 43.1287L13.7494 43.0562C14.0057 42.8038 14.1564 42.3792 14.1251 41.9467C14.0919 41.4633 13.8649 41.1013 13.538 41.0054C13.2191 41.2304 12.994 41.6766 13.0214 42.1678C13.0292 42.3165 13.0606 42.4535 13.1095 42.5788L12.5596 42.1424L12.4617 42.0641C12.7338 41.8273 12.9099 41.4163 12.9157 40.9741C12.9216 40.4829 12.6966 40.1287 12.3913 39.9976C12.0645 40.1952 11.8003 40.6375 11.7964 41.1267C11.7964 41.2735 11.8199 41.4124 11.861 41.5377C11.861 41.5377 11.7279 41.4222 11.5968 41.3068C11.5302 41.25 11.4657 41.1893 11.4187 41.1424C11.3717 41.0974 11.3404 41.0661 11.3404 41.0661L11.2504 40.978C11.5381 40.7608 11.7436 40.3596 11.7709 39.9232C11.7866 39.6825 11.7455 39.4673 11.6614 39.297C11.585 39.1209 11.4637 38.9878 11.3111 38.9154C10.9667 39.0954 10.6829 39.5083 10.6418 40.0034C10.6301 40.1522 10.6379 40.297 10.6731 40.4222C10.6731 40.4222 10.6418 40.3909 10.5948 40.3459C10.5498 40.297 10.4892 40.2344 10.4305 40.1698C10.3111 40.0406 10.1898 39.9134 10.1898 39.9134L10.1037 39.8215C10.405 39.6238 10.6359 39.2383 10.6888 38.8078C10.7533 38.3283 10.6007 37.9272 10.3013 37.7686C9.94514 37.9252 9.63595 38.3185 9.5655 38.8058C9.54397 38.9526 9.54789 39.0935 9.56941 39.2246L9.11541 38.6884L9.03517 38.5925C9.35024 38.4144 9.59877 38.0485 9.6927 37.616C9.7925 37.1366 9.65552 36.7373 9.36785 36.5573C9.00582 36.6884 8.66336 37.0681 8.56747 37.5436C8.53812 37.6884 8.5342 37.8273 8.5479 37.9604C8.5479 37.9604 8.44223 37.8215 8.3346 37.6806C8.28176 37.6101 8.22892 37.5416 8.18783 37.4888C8.14869 37.436 8.12521 37.3988 8.12521 37.3988L8.05476 37.2951C8.37961 37.1385 8.65944 36.7843 8.7749 36.3616C8.83948 36.1268 8.84144 35.9076 8.79447 35.7217C8.77099 35.6297 8.73381 35.5456 8.68489 35.4732C8.63988 35.3969 8.58508 35.3323 8.51855 35.2814C8.14869 35.389 7.7847 35.7452 7.64772 36.2188C7.60858 36.3616 7.59684 36.4986 7.60466 36.6317C7.60466 36.6317 7.50682 36.4869 7.40702 36.3401C7.31308 36.1914 7.22502 36.0407 7.22502 36.0407L7.16044 35.933C7.49508 35.798 7.79644 35.4634 7.93538 35.0485C8.0117 34.8196 8.02932 34.6004 7.99018 34.4145C7.95104 34.2286 7.87863 34.0622 7.74752 33.9546C7.36983 34.0387 6.99019 34.3695 6.81994 34.8391C6.76515 34.982 6.74949 35.117 6.74753 35.2501C6.74753 35.2501 6.72405 35.2129 6.69078 35.1562C6.65556 35.0994 6.61251 35.025 6.57337 34.9448C6.49118 34.7882 6.41094 34.6337 6.41094 34.6337L6.35224 34.5221C6.6947 34.4067 7.01563 34.0916 7.18001 33.6885C7.27003 33.4634 7.29938 33.2482 7.27199 33.0583C7.25242 32.8666 7.18197 32.6983 7.06064 32.5808C6.67904 32.6435 6.27983 32.9487 6.08218 33.4067C6.02152 33.5456 5.98825 33.6845 5.98238 33.8137C5.98238 33.8137 5.89823 33.6591 5.82974 33.4967C5.75733 33.3362 5.68493 33.1757 5.68493 33.1757L5.63405 33.0622C5.98238 32.9683 6.32092 32.6728 6.50879 32.2795C6.61251 32.0603 6.6536 31.845 6.63795 31.6552C6.63012 31.4615 6.56945 31.2893 6.454 31.164C6.06848 31.2032 5.65361 31.4869 5.42857 31.9311C5.36008 32.0662 5.31702 32.2032 5.30528 32.3323C5.30528 32.3323 5.28767 32.2932 5.26027 32.2325C5.23288 32.1718 5.20352 32.0897 5.17221 32.0075C5.10959 31.8431 5.04697 31.6787 5.04697 31.6787L5.00196 31.5613C5.35421 31.4869 5.71037 31.213 5.92171 30.8294C6.03717 30.6161 6.09001 30.4047 6.08609 30.213C6.08022 30.0212 6.03717 29.8431 5.92758 29.712C5.54207 29.7296 5.10959 29.9899 4.85911 30.4224C4.78083 30.5535 4.73973 30.6846 4.71625 30.8137C4.71625 30.8137 4.70059 30.7726 4.67711 30.712C4.65167 30.6513 4.62427 30.5672 4.59883 30.483C4.546 30.3147 4.49316 30.1484 4.49316 30.1484L4.45598 30.029C4.81214 29.9762 5.18395 29.7198 5.41487 29.348C5.54207 29.1425 5.60861 28.9312 5.61448 28.7394C5.61839 28.6435 5.60469 28.5515 5.58121 28.4674C5.55968 28.3813 5.52642 28.303 5.47554 28.2326C5.09002 28.2287 4.64189 28.4674 4.37183 28.8842C4.29356 29.0095 4.24268 29.1386 4.21332 29.2658C4.21332 29.2658 4.16049 29.0975 4.10765 28.9312L3.98828 28.4694C4.34639 28.4341 4.73191 28.1993 4.98435 27.8392C5.26419 27.4381 5.29354 27.0095 5.09785 26.7277C4.71429 26.7042 4.2505 26.9195 3.97458 27.3187C3.89043 27.44 3.83172 27.5672 3.79258 27.6925C3.79258 27.6925 3.74953 27.5222 3.70648 27.352C3.68495 27.2658 3.66343 27.1817 3.64777 27.1171C3.63212 27.0525 3.62429 27.0095 3.62429 27.0095L3.60081 26.8862C3.96088 26.8706 4.35813 26.6553 4.63015 26.305C4.93151 25.9175 4.98826 25.487 4.80627 25.1954C4.4188 25.1543 3.95501 25.3461 3.65364 25.7336C3.56167 25.851 3.49709 25.9743 3.45012 26.0995L3.29553 25.2854C3.66147 25.2854 4.0509 25.0937 4.34639 24.7551C4.66928 24.3813 4.74952 23.9508 4.58514 23.6495C4.19962 23.5888 3.728 23.761 3.40511 24.1348C3.30727 24.2483 3.23486 24.3696 3.18202 24.4909L3.09005 23.7923L3.07439 23.6671C3.43642 23.6847 3.84738 23.5066 4.14092 23.1857C4.22311 23.0956 4.28768 23.0037 4.33856 22.9078C4.39532 22.8119 4.43445 22.716 4.45989 22.6201C4.51077 22.4283 4.49903 22.2444 4.42663 22.0898C4.04698 22.0135 3.56558 22.1661 3.22312 22.5242C3.1194 22.6338 3.03917 22.7512 2.98046 22.8706L2.92958 22.1681L2.9198 22.0428C3.27987 22.0761 3.70061 21.9156 4.01176 21.6064C4.18397 21.4342 4.29551 21.2424 4.34639 21.0546C4.37183 20.9606 4.38162 20.8667 4.37575 20.7787C4.37575 20.6886 4.35813 20.6025 4.32682 20.5223C3.95305 20.4303 3.45991 20.5634 3.1057 20.9078C3.00199 21.0115 2.92175 21.127 2.86305 21.2444C2.86305 21.2444 2.84935 21.0683 2.83761 20.8941C2.82978 20.718 2.82782 20.5419 2.82782 20.5419V20.4166C3.18202 20.4636 3.61059 20.3227 3.93935 20.0233C4.30138 19.6926 4.43054 19.2718 4.29943 18.9489C3.9237 18.8413 3.43642 18.9568 3.07244 19.2875C2.96285 19.3873 2.87674 19.4988 2.81021 19.6143L2.79847 18.9098V18.7846C3.15463 18.8452 3.57732 18.72 3.91391 18.4323C4.29356 18.1133 4.44424 17.6965 4.33269 17.3697C3.96284 17.2503 3.46969 17.3482 3.08809 17.6652C2.97263 17.7611 2.88066 17.8707 2.81021 17.9822L2.83565 17.2777L2.83956 17.1525C3.19377 17.2249 3.6282 17.1153 3.97066 16.8394C4.35226 16.5341 4.4912 16.1212 4.4051 15.7885C4.04111 15.6554 3.5421 15.7376 3.1468 16.0409C3.03134 16.1329 2.94132 16.2386 2.86892 16.3482C2.86892 16.3482 2.87674 16.1721 2.88262 15.9959C2.89827 15.8198 2.91393 15.6456 2.91393 15.6456L2.60082 15.6241C2.60082 15.6241 2.58516 15.8002 2.56951 15.9764C2.56168 16.1544 2.55581 16.3306 2.55581 16.3306C2.49123 16.2112 2.40904 16.0957 2.30141 15.9881C1.96286 15.6339 1.48537 15.4734 1.10182 15.5615C0.939393 15.8961 1.06855 16.3658 1.42275 16.722C1.74369 17.0448 2.1703 17.1857 2.52841 17.1388L2.5245 17.266L2.49906 17.9744C2.43448 17.8589 2.35229 17.7454 2.2427 17.6417C1.88654 17.2973 1.40123 17.1525 1.02354 17.2562C0.886557 17.5987 1.00593 18.0624 1.36209 18.4049C1.69085 18.7161 2.13116 18.8433 2.4834 18.7826V18.9098L2.49906 19.6202C2.42861 19.5067 2.33859 19.3971 2.22509 19.2953C1.85132 18.9646 1.35817 18.8374 0.986359 18.9528C0.868944 19.3012 1.0118 19.7611 1.38557 20.0918C1.72412 20.3912 2.1566 20.5008 2.5108 20.4284V20.5556C2.5108 20.5556 2.51276 20.7336 2.52254 20.9098C2.53624 21.0859 2.54798 21.264 2.54798 21.264C2.47166 21.1524 2.37577 21.0468 2.2564 20.9509C1.87284 20.6338 1.38753 20.5243 1.01376 20.6554C0.984403 20.7434 0.970704 20.8393 0.974618 20.9352C0.982446 21.0331 1.00593 21.1329 1.04507 21.2307C1.12334 21.4284 1.26424 21.6201 1.45993 21.7786C1.81414 22.0644 2.25444 22.1563 2.60473 22.0702L2.61452 22.1974L2.6654 22.9058C2.58908 22.7982 2.49319 22.6945 2.37577 22.6045C1.98439 22.3031 1.48537 22.2131 1.12139 22.3598C1.07246 22.5399 1.09008 22.7414 1.16835 22.9371C1.20749 23.035 1.26229 23.1309 1.33273 23.2209C1.4071 23.3109 1.49712 23.3951 1.59888 23.4694C1.97069 23.7414 2.41491 23.8138 2.75933 23.7121L2.77498 23.8373L2.86696 24.5418C2.78477 24.4381 2.68301 24.3383 2.55972 24.2522C2.15073 23.9684 1.6478 23.8999 1.29164 24.0604C1.21336 24.4244 1.40905 24.8667 1.81805 25.1504C2.18204 25.4068 2.64583 25.4577 2.98046 25.3422L3.00394 25.4674L3.13701 26.1661C3.04895 26.0663 2.94132 25.9723 2.81217 25.8921C2.38751 25.6279 1.87872 25.5829 1.53234 25.759C1.47559 26.125 1.69476 26.5594 2.12137 26.8236C2.50493 27.0623 2.95111 27.0936 3.2877 26.9606L3.31118 27.0858C3.31118 27.0858 3.31705 27.1308 3.33466 27.1934C3.35032 27.258 3.37185 27.3441 3.39337 27.4302C3.43642 27.6024 3.47948 27.7746 3.47948 27.7746C3.38554 27.6788 3.27204 27.5907 3.13897 27.5183C2.69475 27.2776 2.19574 27.2521 1.85328 27.4478C1.81414 27.8177 2.06267 28.2404 2.50297 28.4831C2.90218 28.7022 3.34836 28.712 3.67712 28.5613L3.70844 28.6846L3.7965 29.029L3.90413 29.3676C3.80432 29.2776 3.68691 29.1954 3.54797 29.1288C3.1057 28.9077 2.60473 28.9077 2.27206 29.121C2.26423 29.2149 2.27206 29.3108 2.2975 29.4067C2.32489 29.5007 2.37382 29.5946 2.43448 29.6826C2.55777 29.8588 2.73976 30.0153 2.96676 30.1249C3.37772 30.3226 3.82585 30.3089 4.14679 30.1406L4.18592 30.2619C4.18592 30.2619 4.23876 30.4321 4.29356 30.6004C4.31899 30.6865 4.34835 30.7687 4.37379 30.8314C4.39727 30.894 4.41293 30.9351 4.41293 30.9351C4.30725 30.8509 4.18397 30.7766 4.04894 30.7139C3.59885 30.5143 3.09396 30.5437 2.77498 30.7726C2.77303 30.9605 2.82782 31.1582 2.96285 31.3265C3.09592 31.4967 3.2877 31.6435 3.52253 31.7394C3.94522 31.9135 4.39336 31.8744 4.70255 31.6885L4.74756 31.8079C4.74756 31.8079 4.81018 31.9742 4.87476 32.1405C4.90803 32.2227 4.93738 32.3069 4.96282 32.3675C4.99022 32.4282 5.00783 32.4693 5.00783 32.4693C4.89629 32.391 4.77496 32.3206 4.63602 32.2677C4.17418 32.0936 3.67125 32.1503 3.36597 32.3988C3.37185 32.5867 3.44621 32.7804 3.58319 32.9448C3.72605 33.1073 3.92565 33.2423 4.16636 33.3264C4.59883 33.4771 5.04306 33.4106 5.34246 33.2071L5.3953 33.3225C5.3953 33.3225 5.46771 33.4849 5.54207 33.6474C5.61252 33.8117 5.69667 33.9683 5.69667 33.9683C5.57925 33.8979 5.45401 33.8352 5.31311 33.7902C4.84149 33.6434 4.34248 33.7296 4.05285 33.9937C4.07047 34.1816 4.15657 34.3695 4.30138 34.526C4.45402 34.6806 4.66146 34.8039 4.90607 34.8724C5.34834 34.9976 5.78669 34.9057 6.0724 34.6845L6.1311 34.7961C6.1311 34.7961 6.21329 34.9526 6.29548 35.1111C6.33462 35.1914 6.37963 35.2677 6.41486 35.3244C6.45008 35.3812 6.47161 35.4203 6.47161 35.4203C6.35419 35.3558 6.21721 35.3049 6.07435 35.2677C5.59686 35.1503 5.10372 35.2657 4.82975 35.5475C4.86106 35.7334 4.95108 35.9193 5.11546 36.0642C5.27593 36.209 5.49119 36.3205 5.73776 36.3753C6.1859 36.4732 6.61642 36.3557 6.88843 36.117L6.95301 36.2266C6.95301 36.2266 7.04303 36.3812 7.13696 36.5299C7.23676 36.6767 7.33657 36.8234 7.33657 36.8234C7.21524 36.7647 7.07825 36.7217 6.92757 36.6962C6.43834 36.6121 5.95889 36.753 5.70058 37.0544C5.72015 37.1463 5.75733 37.2383 5.81017 37.3225C5.86692 37.4047 5.93933 37.481 6.02347 37.5495C6.19177 37.6845 6.4129 37.7843 6.66143 37.8234C7.11348 37.8958 7.53421 37.7491 7.79057 37.4947L7.86102 37.6003C7.86102 37.6003 7.8845 37.6375 7.9256 37.6923C7.96669 37.7452 8.01953 37.8156 8.07433 37.888C8.18196 38.0289 8.28959 38.1718 8.28959 38.1718C8.1663 38.1209 8.02736 38.0837 7.87668 38.07C7.37375 38.023 6.90409 38.1933 6.6673 38.5103C6.77884 38.8704 7.17806 39.1678 7.67707 39.2168C8.12716 39.2637 8.5479 39.0837 8.78469 38.8136L8.86688 38.9115L9.32675 39.4555C9.20151 39.4125 9.06257 39.3831 8.90993 39.3772C8.41092 39.3577 7.94517 39.5651 7.73382 39.8939C7.87081 40.2441 8.27589 40.5259 8.78273 40.5377C9.24457 40.5455 9.64769 40.3439 9.86686 40.0582L9.95297 40.1502C9.95297 40.1502 10.0743 40.2794 10.1956 40.4105C10.2563 40.4751 10.317 40.5396 10.362 40.5886C10.4089 40.6355 10.4422 40.6668 10.4422 40.6668C10.3091 40.6375 10.1721 40.614 10.0215 40.616C9.52636 40.6257 9.07627 40.8625 8.88645 41.205C8.96277 41.3792 9.10758 41.5279 9.29544 41.6336C9.48918 41.7334 9.72597 41.7862 9.98037 41.7745C10.4383 41.7549 10.8258 41.5279 11.0254 41.2285L11.1173 41.3165C11.1173 41.3165 11.1486 41.3479 11.1976 41.3929C11.2445 41.4398 11.3091 41.5024 11.3776 41.5592C11.5107 41.6766 11.6457 41.794 11.6457 41.794C11.5146 41.7686 11.3717 41.7608 11.2191 41.7764C10.7201 41.8253 10.2954 42.0837 10.1232 42.4418C10.2935 42.7842 10.7533 42.9858 11.2504 42.9369C11.7025 42.8919 12.0743 42.6375 12.2543 42.3263L12.3541 42.4046L12.9118 42.8469C12.7807 42.8292 12.6379 42.8292 12.4891 42.8527C11.996 42.933 11.5811 43.2285 11.4363 43.5924C11.6398 43.9095 12.0919 44.1052 12.5909 44.0151C13.0449 43.9329 13.3991 43.6551 13.5596 43.3322L13.6633 43.4065C13.6633 43.4065 13.8081 43.5102 13.9529 43.614C14.0958 43.7196 14.2465 43.8155 14.2465 43.8155C14.1114 43.8097 13.9686 43.8194 13.8238 43.8508C13.3404 43.9564 12.9471 44.2774 12.8257 44.6511C12.9353 44.8057 13.1036 44.9271 13.311 44.9897C13.5185 45.0503 13.7611 45.0582 14.0057 44.9975C14.45 44.8918 14.7846 44.5944 14.9235 44.2598L15.0312 44.3282L15.6417 44.6942C15.5087 44.6942 15.3678 44.7118 15.223 44.7549C14.7435 44.8977 14.3697 45.2441 14.2738 45.6237C14.5165 45.9114 14.9881 46.0464 15.4734 45.8938C15.9118 45.7548 16.2288 45.4359 16.3462 45.0954L16.4578 45.156C16.4578 45.156 16.6143 45.2402 16.7709 45.3263C16.9294 45.4065 17.0879 45.4867 17.0879 45.4867C16.9548 45.4965 16.8139 45.5239 16.6711 45.5768C16.2034 45.747 15.855 46.111 15.7826 46.4985C16.0331 46.7861 16.5282 46.8664 16.9959 46.6942C17.4245 46.5298 17.7219 46.1893 17.8159 45.8409L17.9313 45.8938L18.2542 46.0425C18.4186 46.113 18.581 46.1814 18.581 46.1814C18.448 46.1991 18.311 46.2362 18.172 46.2989C17.718 46.4965 17.3912 46.8859 17.3443 47.2754C17.6143 47.5435 18.1114 47.6002 18.5712 47.3928C18.99 47.199 19.262 46.8409 19.3325 46.4867L19.4519 46.5317C19.4519 46.5317 19.6162 46.5983 19.7845 46.655L20.1192 46.7744C19.9881 46.7998 19.853 46.8448 19.72 46.9153C19.2757 47.1501 18.9802 47.5532 18.9587 47.9485C19.2523 48.1932 19.7532 48.2245 20.2014 47.9799C20.6084 47.7607 20.8511 47.3791 20.8922 47.021L21.0135 47.0582L21.0996 46.7548L20.9802 46.7196C21.1368 46.3928 21.1368 45.9486 20.9743 45.5454L20.9763 45.5278Z" fill="#183041"/>
<path d="M2.91731 15.5168C3.18933 15.3094 3.39089 14.9708 3.42611 14.5599C3.46917 14.0667 3.2676 13.6205 2.94471 13.3818C2.58659 13.5423 2.31067 13.9493 2.26762 14.4542C2.23043 14.8749 2.36938 15.2507 2.60225 15.4933L2.59051 15.6205L2.90361 15.642L2.91536 15.5148L2.91731 15.5168Z" fill="#183041"/>
<path d="M42.338 20.9453C42.2186 21.0412 42.1228 21.1488 42.0464 21.2584C42.0464 21.2584 42.0601 21.0823 42.0719 20.9042C42.0797 20.7261 42.0817 20.55 42.0817 20.55V20.4228C42.4378 20.4952 42.8722 20.3856 43.2108 20.0862C43.5846 19.7555 43.7294 19.2956 43.61 18.9473C43.2382 18.8318 42.747 18.959 42.3713 19.2897C42.2578 19.3895 42.1678 19.5011 42.0973 19.6146L42.1091 18.9042V18.777C42.4633 18.8377 42.9036 18.7105 43.2343 18.3993C43.5904 18.0549 43.7098 17.5931 43.5728 17.2506C43.1951 17.1489 42.7098 17.2937 42.3537 17.6361C42.246 17.7399 42.1619 17.8534 42.0973 17.9708L42.0719 17.2624L42.068 17.1352C42.4261 17.1821 42.8527 17.0412 43.1736 16.7183C43.5278 16.3622 43.657 15.8945 43.4946 15.5579C43.111 15.4679 42.6335 15.6283 42.295 15.9845C42.1873 16.0921 42.1032 16.2095 42.0406 16.327C42.0406 16.327 42.0327 16.1489 42.0269 15.9728C42.0112 15.7966 41.9956 15.6205 41.9956 15.6205L41.9838 15.4933C42.2167 15.2487 42.3556 14.8749 42.3184 14.4542C42.2734 13.9493 41.9995 13.5423 41.6413 13.3818C41.3185 13.6205 41.1169 14.0667 41.1599 14.5599C41.1952 14.9708 41.3967 15.3094 41.6687 15.5168L41.6805 15.644C41.6805 15.644 41.6961 15.8201 41.7118 15.9943L41.7255 16.3465C41.6531 16.2369 41.5631 16.1313 41.4476 16.0393C41.0504 15.734 40.5513 15.6538 40.1893 15.7869C40.1032 16.1195 40.2402 16.5324 40.6237 16.8377C40.9662 17.1136 41.4026 17.2232 41.7549 17.1508L41.7588 17.2761L41.7842 17.9806C41.7118 17.8671 41.6198 17.7594 41.5063 17.6635C41.1267 17.3446 40.6316 17.2467 40.2617 17.368C40.1482 17.6968 40.2989 18.1136 40.6805 18.4307C41.0171 18.7164 41.4398 18.8436 41.7979 18.7829V18.9081L41.7822 19.6126C41.7157 19.4972 41.6316 19.3856 41.52 19.2858C41.158 18.9551 40.6688 18.8396 40.293 18.9473C40.1619 19.2702 40.2911 19.6909 40.6531 20.0216C40.9819 20.321 41.4104 20.4619 41.7666 20.415V20.5402C41.7666 20.5402 41.7646 20.7163 41.7549 20.8925C41.7412 21.0686 41.7294 21.2427 41.7294 21.2427C41.6687 21.1253 41.5905 21.0118 41.4868 20.9062C41.1325 20.5617 40.6394 20.4267 40.2656 20.5206C40.2324 20.6009 40.2167 20.687 40.2167 20.777C40.2108 20.867 40.2206 20.959 40.2461 21.0529C40.2969 21.2408 40.4085 21.4326 40.5807 21.6048C40.8918 21.9159 41.3126 22.0744 41.6727 22.0412L41.6629 22.1664L41.612 22.8689C41.5533 22.7496 41.4731 22.6302 41.3693 22.5226C41.0269 22.1625 40.5455 22.0099 40.1658 22.0881C40.0915 22.2427 40.0817 22.4286 40.1326 22.6185C40.158 22.7144 40.1991 22.8102 40.2539 22.9061C40.3048 23.002 40.3713 23.094 40.4515 23.184C40.7451 23.5069 41.156 23.683 41.5181 23.6654L41.5024 23.7907L41.4104 24.4893C41.3576 24.366 41.2852 24.2447 41.1873 24.1331C40.8645 23.7593 40.3928 23.5871 40.0073 23.6478C39.8429 23.9511 39.9232 24.3797 40.2461 24.7535C40.5435 25.092 40.931 25.2838 41.2969 25.2838L41.1423 26.0979C41.0973 25.9726 41.0308 25.8493 40.9388 25.7319C40.6374 25.3445 40.1756 25.1527 39.7862 25.1938C39.6042 25.4873 39.659 25.9178 39.9623 26.3033C40.2343 26.6517 40.6335 26.8669 40.9916 26.8846L40.9682 27.0078C40.9682 27.0078 40.9623 27.0509 40.9447 27.1155C40.929 27.18 40.9075 27.2642 40.886 27.3503L40.7999 27.6908C40.7607 27.5636 40.704 27.4384 40.6179 27.317C40.342 26.9178 39.8782 26.7006 39.4946 26.726C39.2989 27.0098 39.3263 27.4384 39.6081 27.8376C39.8605 28.1976 40.2461 28.4344 40.6042 28.4677L40.4848 28.9295C40.432 29.0978 40.3791 29.2642 40.3791 29.2642C40.3478 29.137 40.2969 29.0078 40.2206 28.8826C39.9525 28.4657 39.5024 28.227 39.1169 28.2309C39.068 28.2994 39.0328 28.3796 39.0112 28.4657C38.9878 28.5518 38.9741 28.6419 38.978 28.7378C38.9839 28.9295 39.0504 29.1409 39.1776 29.3464C39.4085 29.7182 39.7803 29.9745 40.1365 30.0274L40.0993 30.1467C40.0993 30.1467 40.0465 30.315 39.9936 30.4814C39.9682 30.5655 39.9408 30.6497 39.9153 30.7103C39.8919 30.771 39.8762 30.8121 39.8762 30.8121C39.8527 30.6829 39.8116 30.5518 39.7334 30.4207C39.4829 29.9882 39.0523 29.728 38.6649 29.7103C38.5553 29.8415 38.5122 30.0195 38.5064 30.2113C38.5024 30.4031 38.5553 30.6164 38.6707 30.8277C38.8801 31.2113 39.2363 31.4872 39.5905 31.5596L39.5455 31.677C39.5455 31.677 39.4829 31.8414 39.4202 32.0058C39.3889 32.088 39.3596 32.1702 39.3322 32.2309C39.3048 32.2915 39.2872 32.3307 39.2872 32.3307C39.2735 32.2015 39.2324 32.0645 39.1639 31.9295C38.9388 31.4853 38.524 31.2015 38.1385 31.1624C38.023 31.2876 37.9643 31.4579 37.9545 31.6536C37.9389 31.8434 37.9799 32.0587 38.0837 32.2778C38.2715 32.6712 38.6101 32.9686 38.9584 33.0606L38.9075 33.1741C38.9075 33.1741 38.8351 33.3346 38.7627 33.495C38.6942 33.6575 38.6101 33.812 38.6101 33.812C38.6042 33.6829 38.5709 33.544 38.5103 33.405C38.3126 32.9471 37.9134 32.6418 37.5318 32.5792C37.4105 32.6966 37.34 32.8649 37.3205 33.0567C37.2931 33.2465 37.3205 33.4618 37.4124 33.6868C37.5768 34.0919 37.8978 34.4069 38.2402 34.5205L38.1815 34.632C38.1815 34.632 38.0993 34.7886 38.0191 34.9431C37.9799 35.0214 37.9349 35.0977 37.9017 35.1545C37.8684 35.2112 37.8449 35.2484 37.8449 35.2484C37.8449 35.1173 37.8273 34.9823 37.7725 34.8375C37.6023 34.3698 37.2207 34.0391 36.8449 33.9529C36.7138 34.0606 36.6414 34.2289 36.6023 34.4128C36.5651 34.6007 36.5807 34.8179 36.6571 35.0469C36.796 35.4617 37.0993 35.7964 37.432 35.9314L37.3674 36.039C37.3674 36.039 37.2794 36.1917 37.1854 36.3384C37.0876 36.4832 36.9878 36.63 36.9878 36.63C36.9956 36.4989 36.9839 36.36 36.9447 36.2171C36.8078 35.7416 36.4438 35.3854 36.0739 35.2797C36.0074 35.3306 35.9506 35.3952 35.9076 35.4715C35.8606 35.5439 35.8234 35.6281 35.798 35.72C35.751 35.904 35.753 36.1251 35.8176 36.36C35.933 36.7827 36.2129 37.1369 36.5377 37.2934L36.4673 37.3971C36.4673 37.3971 36.4438 37.4343 36.4046 37.4871C36.3655 37.54 36.3107 37.6104 36.2579 37.6789C36.1522 37.8179 36.0446 37.9588 36.0446 37.9588C36.0583 37.8276 36.0563 37.6868 36.025 37.5419C35.9291 37.0664 35.5866 36.6868 35.2246 36.5557C34.9369 36.7357 34.798 37.1349 34.8998 37.6143C34.9937 38.0488 35.2422 38.4128 35.5573 38.5908L35.4771 38.6867L35.023 39.2229C35.0446 39.0918 35.0485 38.9509 35.027 38.8041C34.9565 38.3169 34.6473 37.9235 34.2912 37.767C33.9917 37.9255 33.8391 38.3267 33.9037 38.8061C33.9585 39.2347 34.1874 39.6202 34.4888 39.8198L34.4027 39.9118C34.4027 39.9118 34.2833 40.0409 34.162 40.1681C34.1013 40.2327 34.0426 40.2973 33.9976 40.3442C33.9506 40.3893 33.9193 40.4206 33.9193 40.4206C33.9546 40.2953 33.9644 40.1505 33.9507 40.0018C33.9076 39.5086 33.6238 39.0938 33.2814 38.9137C33.1287 38.9861 33.0094 39.1192 32.9311 39.2953C32.8469 39.4656 32.8059 39.6809 32.8215 39.9216C32.8509 40.356 33.0544 40.7591 33.342 40.9763L33.252 41.0644C33.252 41.0644 33.2207 41.0957 33.1738 41.1407C33.1268 41.1877 33.0642 41.2483 32.9957 41.3051C32.8626 41.4206 32.7315 41.536 32.7315 41.536C32.7726 41.4108 32.7961 41.2738 32.7961 41.1251C32.7922 40.6358 32.528 40.1936 32.2012 39.9959C31.8939 40.1251 31.6708 40.4812 31.6767 40.9724C31.6806 41.4147 31.8567 41.8256 32.1307 42.0624L32.0329 42.1407L31.483 42.5771C31.5299 42.4519 31.5632 42.3149 31.571 42.1661C31.5965 41.675 31.3714 41.2288 31.0544 41.0037C30.7276 41.0996 30.5006 41.4636 30.4673 41.945C30.436 42.3775 30.5867 42.8002 30.8431 43.0546L30.7413 43.127C30.7413 43.127 30.5984 43.2287 30.4556 43.3325C30.3147 43.4381 30.166 43.5321 30.166 43.5321C30.2227 43.4147 30.2658 43.2816 30.2814 43.1309C30.3362 42.6378 30.1386 42.1759 29.8372 41.9333C29.6728 41.9724 29.5319 42.084 29.4165 42.2385C29.301 42.3912 29.2208 42.5947 29.1895 42.8354C29.1347 43.2698 29.258 43.7043 29.4987 43.9724L29.393 44.0409L28.7903 44.4029C28.8529 44.2855 28.9018 44.1544 28.9292 44.0076C29.0192 43.5242 28.8529 43.0526 28.5652 42.7884C28.2286 42.8413 27.9546 43.174 27.8607 43.6475C27.7746 44.0741 27.8705 44.5144 28.0936 44.7982L27.984 44.8589C27.984 44.8589 27.8294 44.943 27.6748 45.0272C27.5183 45.1054 27.3617 45.1857 27.3617 45.1857C27.4321 45.0741 27.4909 44.9469 27.528 44.8041C27.6455 44.3246 27.5085 43.8374 27.2404 43.5595C26.9097 43.6084 26.6044 43.8961 26.485 44.3735C26.3735 44.7962 26.44 45.2365 26.6435 45.536L26.53 45.5888C26.53 45.5888 26.3695 45.6632 26.211 45.7356L25.8881 45.8726C25.9664 45.7649 26.033 45.6436 26.078 45.5027C26.2247 45.0291 26.1191 44.5379 25.8705 44.2424C25.5359 44.2659 25.2169 44.5399 25.0662 45.0056C24.9273 45.4166 24.9645 45.8647 25.1484 46.1759L25.031 46.2209C25.031 46.2209 24.8686 46.2874 24.7022 46.3422C24.5379 46.4009 24.3715 46.4596 24.3715 46.4596C24.4557 46.3579 24.53 46.2385 24.5848 46.0996C24.7668 45.6455 24.6905 45.1407 24.4635 44.8315C24.1289 44.8256 23.8001 45.0839 23.6162 45.5281C23.4537 45.9293 23.4518 46.3755 23.6103 46.7023L23.4909 46.7375L23.1778 46.8236C23.0937 46.8451 23.0428 46.9293 23.0623 47.0154C23.0819 47.0995 23.17 47.1504 23.2561 47.1289L23.577 47.0408L23.6983 47.0037C23.7394 47.3618 23.9841 47.7434 24.3891 47.9625C24.8373 48.2072 25.3402 48.1758 25.6318 47.9312C25.6103 47.5359 25.3148 47.1348 24.8705 46.898C24.7355 46.8275 24.6024 46.7825 24.4713 46.7571C24.4713 46.7571 24.6396 46.6984 24.806 46.6377C24.9743 46.581 25.1406 46.5144 25.1406 46.5144L25.26 46.4694C25.3304 46.8236 25.6024 47.1817 26.0212 47.3755C26.4791 47.5809 26.9762 47.5242 27.2482 47.2581C27.2012 46.8686 26.8744 46.4792 26.4204 46.2815C26.2815 46.2209 26.1425 46.1817 26.0114 46.1641C26.0114 46.1641 26.1758 46.0937 26.3382 46.0252C26.5007 45.9508 26.6611 45.8765 26.6611 45.8765L26.7766 45.8236C26.8705 46.17 27.168 46.5125 27.5965 46.6768C28.0662 46.8491 28.5593 46.7688 28.8098 46.4812C28.7355 46.0937 28.3891 45.7297 27.9214 45.5594C27.7785 45.5066 27.6396 45.4792 27.5046 45.4694C27.5046 45.4694 27.6631 45.3892 27.8216 45.309C27.9781 45.2248 28.1347 45.1387 28.1347 45.1387L28.2462 45.078C28.3636 45.4205 28.6787 45.7375 29.119 45.8765C29.6043 46.0311 30.0779 45.8941 30.3186 45.6064C30.2227 45.2287 29.8489 44.8804 29.3695 44.7375C29.2247 44.6945 29.0838 44.6769 28.9507 44.6769L29.5613 44.3109L29.6689 44.2424C29.8078 44.5771 30.1425 44.8726 30.5867 44.9802C30.8333 45.0389 31.074 45.0311 31.2814 44.9724C31.4888 44.9097 31.6571 44.7884 31.7667 44.6338C31.6454 44.26 31.2521 43.9411 30.7687 43.8334C30.6239 43.8021 30.481 43.7923 30.346 43.7982C30.346 43.7982 30.4967 43.7043 30.6395 43.5967C30.7844 43.4929 30.9292 43.3892 30.9292 43.3892L31.0329 43.3149C31.1933 43.6377 31.5476 43.9156 32.0016 43.9978C32.5006 44.0859 32.9546 43.8921 33.1561 43.5751C33.0133 43.2111 32.5965 42.9156 32.1033 42.8354C31.9546 42.8119 31.8117 42.8119 31.6806 42.8295L32.2383 42.3873L32.3381 42.309C32.5182 42.6221 32.89 42.8765 33.342 42.9196C33.8411 42.9685 34.299 42.7669 34.4692 42.4245C34.297 42.0663 33.8724 41.808 33.3734 41.7591C33.2207 41.7434 33.0779 41.7513 32.9468 41.7767C32.9468 41.7767 33.0798 41.6593 33.2148 41.5419C33.2833 41.4851 33.346 41.4225 33.3949 41.3755C33.4438 41.3286 33.4751 41.2992 33.4751 41.2992L33.5671 41.2112C33.7687 41.5125 34.1542 41.7376 34.6121 41.7571C34.8665 41.7689 35.1033 41.7141 35.297 41.6162C35.4849 41.5106 35.6277 41.3599 35.706 41.1877C35.5142 40.8452 35.0641 40.6084 34.569 40.5986C34.4184 40.5947 34.2814 40.6182 34.1483 40.6495C34.1483 40.6495 34.1796 40.6182 34.2285 40.5713C34.2735 40.5223 34.3342 40.4578 34.3949 40.3932C34.5162 40.264 34.6375 40.1329 34.6375 40.1329L34.7236 40.0409C34.9428 40.3266 35.3459 40.5282 35.8078 40.5204C36.3146 40.5086 36.7197 40.2268 36.8567 39.8765C36.6434 39.5497 36.1796 39.3404 35.6806 39.3599C35.5299 39.3658 35.3909 39.3951 35.2637 39.4382L35.7236 38.8942L35.8058 38.7963C36.0426 39.0664 36.4633 39.2464 36.9134 39.1994C37.4124 39.1505 37.8117 38.8531 37.9232 38.493C37.6864 38.176 37.2168 38.0057 36.7138 38.0527C36.5631 38.0684 36.4242 38.1036 36.3009 38.1545C36.3009 38.1545 36.4085 38.0136 36.5162 37.8707C36.569 37.8003 36.6238 37.7298 36.6649 37.675C36.704 37.6222 36.7295 37.583 36.7295 37.583L36.7999 37.4774C37.0563 37.7337 37.479 37.8785 37.9291 37.8061C38.1796 37.767 38.3987 37.6672 38.567 37.5322C38.6512 37.4637 38.7236 37.3873 38.7803 37.3052C38.8332 37.221 38.8703 37.129 38.8899 37.0371C38.6316 36.7376 38.1522 36.5948 37.6629 36.6789C37.5122 36.7024 37.3753 36.7474 37.2539 36.8061L37.4535 36.5126C37.5494 36.3619 37.6375 36.2093 37.6375 36.2093L37.7021 36.0997C37.9741 36.3384 38.4046 36.4578 38.8527 36.358C39.0993 36.3032 39.3146 36.1917 39.475 36.0469C39.6394 35.904 39.7294 35.7161 39.7607 35.5302C39.4868 35.2484 38.9936 35.133 38.5161 35.2504C38.3733 35.2876 38.2363 35.3384 38.1189 35.403C38.1189 35.403 38.1424 35.3658 38.1756 35.3071C38.2109 35.2504 38.2559 35.1741 38.295 35.0938C38.3772 34.9373 38.4594 34.7788 38.4594 34.7788L38.5181 34.6672C38.8038 34.8884 39.2422 34.9803 39.6844 34.8551C39.929 34.7866 40.1365 34.6614 40.2891 34.5087C40.4359 34.3522 40.52 34.1643 40.5377 33.9764C40.248 33.7122 39.749 33.6261 39.2774 33.7729C39.1365 33.8179 39.0112 33.8805 38.8938 33.951C38.8938 33.951 38.978 33.7944 39.0484 33.6301C39.1208 33.4676 39.1952 33.3052 39.1952 33.3052L39.248 33.1898C39.5474 33.3933 39.9897 33.4598 40.4241 33.3091C40.6648 33.225 40.8645 33.0899 41.0073 32.9275C41.1423 32.7631 41.2167 32.5694 41.2245 32.3815C40.9192 32.133 40.4163 32.0782 39.9545 32.2504C39.8155 32.3033 39.6942 32.3737 39.5827 32.452C39.5827 32.452 39.6003 32.4109 39.6277 32.3502C39.6551 32.2896 39.6844 32.2054 39.7157 32.1232C39.7784 31.9569 39.8429 31.7906 39.8429 31.7906L39.8879 31.6712C40.1971 31.8571 40.6453 31.8962 41.068 31.7221C41.3028 31.6262 41.4926 31.4774 41.6277 31.3091C41.7627 31.1389 41.8175 30.9412 41.8155 30.7553C41.4965 30.5244 40.9916 30.497 40.5416 30.6966C40.4085 30.7573 40.2832 30.8336 40.1776 30.9178C40.1776 30.9178 40.1932 30.8767 40.2167 30.814C40.2422 30.7534 40.2715 30.6673 40.2969 30.5831C40.3498 30.4129 40.4046 30.2446 40.4046 30.2446L40.4437 30.1233C40.7646 30.2915 41.2108 30.3072 41.6237 30.1076C41.8507 29.998 42.0327 29.8415 42.156 29.6653C42.2167 29.5773 42.2656 29.4853 42.293 29.3894C42.3184 29.2935 42.3282 29.1976 42.3184 29.1037C41.9858 28.8904 41.4848 28.8904 41.0425 29.1115C40.9036 29.1781 40.7862 29.2603 40.6864 29.3503C40.6864 29.3503 40.7392 29.18 40.794 29.0117L40.8821 28.6673L40.9134 28.544C41.2421 28.6947 41.6903 28.6849 42.0875 28.4657C42.5278 28.2231 42.7764 27.8004 42.7372 27.4305C42.3948 27.2348 41.8957 27.2603 41.4515 27.501C41.3185 27.5753 41.205 27.6634 41.111 27.7573L41.1971 27.4129C41.2187 27.3268 41.2402 27.2407 41.2558 27.1761C41.2715 27.1116 41.2793 27.0685 41.2793 27.0685L41.3028 26.9433C41.6394 27.0783 42.0836 27.045 42.4691 26.8063C42.8938 26.5421 43.1149 26.1077 43.0582 25.7417C42.7118 25.5636 42.2049 25.6106 41.7783 25.8748C41.6492 25.955 41.5435 26.0489 41.4535 26.1487L41.5866 25.4501L41.61 25.3249C41.9466 25.4423 42.4085 25.3914 42.7725 25.1331C43.1814 24.8494 43.3752 24.4071 43.2989 24.0431C42.9427 23.8826 42.4398 23.9511 42.0308 24.2349C41.9075 24.321 41.8057 24.4188 41.7235 24.5245L41.8155 23.82L41.8312 23.6948C42.1775 23.7965 42.6218 23.7241 42.9916 23.4521C43.0934 23.3777 43.1834 23.2936 43.2578 23.2036C43.3263 23.1136 43.381 23.0177 43.4221 22.9198C43.5004 22.7241 43.518 22.5226 43.4691 22.3425C43.1051 22.1977 42.6081 22.2877 42.2147 22.5872C42.0954 22.6791 42.0014 22.7809 41.9251 22.8885L41.9779 22.1801L41.9877 22.0529C42.338 22.141 42.7764 22.049 43.1325 21.7613C43.3282 21.6028 43.4691 21.411 43.5474 21.2134C43.5865 21.1156 43.61 21.0138 43.6198 20.9179C43.6237 20.8201 43.61 20.7261 43.5807 20.6381C43.2069 20.5069 42.7216 20.6185 42.338 20.9336V20.9453Z" fill="#183041"/>
<path d="M38.896 6.99208L38.7101 5.34044L37.0487 5.25825C34.3012 5.12322 29.0664 4.50679 24.8825 1.89626C24.5459 1.68687 23.8316 1.16828 23.4324 0.87083L22.2642 0L21.0959 0.87083C20.5929 1.2446 19.9491 1.70839 19.6438 1.89821C15.4599 4.50679 10.2252 5.12322 7.47766 5.25825L5.81623 5.34044L5.63032 6.99208C4.20177 19.7101 8.42285 34.616 12.2154 38.4789C16.4736 42.8174 21.2779 44.0503 21.8121 44.1775L22.2622 44.2851L22.7123 44.1775C23.2465 44.0503 28.0488 42.8174 32.309 38.4789C36.1015 34.616 40.3226 19.7101 38.8941 6.99208H38.896ZM22.4892 43.2264L22.2642 43.2793L22.0391 43.2264C21.5342 43.1071 16.9824 41.9368 12.9159 37.794C9.27215 34.0837 5.21937 19.4381 6.60487 7.10167L6.69685 6.27585L7.52658 6.23475C10.368 6.09581 15.7887 5.45394 20.1605 2.72599C20.5127 2.50682 21.1996 2.00976 21.679 1.6536L22.2642 1.21916L22.8473 1.65556C23.2015 1.91974 23.9745 2.48529 24.3639 2.72795C28.7357 5.45394 34.1564 6.09581 36.9978 6.23671L37.8275 6.2778L37.9195 7.10362C39.305 19.4401 35.2522 34.0857 31.6084 37.796C27.542 41.9388 22.9902 43.109 22.4853 43.2284L22.4892 43.2264Z" fill="#183041"/>
<path d="M13.074 27.6926C13.074 27.6926 13.0661 27.6868 13.0603 27.6848C13.0603 27.6848 13.0094 30.0683 15.0583 31.1818C17.1091 32.2953 17.1091 34.4147 17.1091 34.4147C17.1091 34.4147 12.7217 32.084 10.6004 27.4735C8.47913 22.8649 8.38324 23.1819 8.38324 23.1819C8.25408 23.6085 8.48695 24.4539 8.53979 24.8805C9.0388 28.8687 10.3754 32.5223 12.9468 35.4812C15.4125 38.3168 18.4222 40.0623 21.1893 41.348C21.1756 41.3422 21.5729 39.6651 21.5866 39.5535C21.9212 37.0448 21.3322 33.9783 19.6355 32.1583C17.8645 30.2582 15.2148 29.0214 13.072 27.6946L13.074 27.6926Z" fill="#183041"/>
<path d="M33.9148 27.4716C31.7935 32.0801 27.4061 34.4128 27.4061 34.4128C27.4061 34.4128 27.4061 32.2935 29.457 31.18C31.5078 30.0665 31.455 27.6829 31.455 27.6829C31.4511 27.6849 31.4471 27.6888 31.4413 27.6908C29.2984 29.0195 26.6488 30.2563 24.8778 32.1545C23.1811 33.9744 22.5901 37.0409 22.9267 39.5497C22.9424 39.6593 23.3396 41.3364 23.324 41.3442C26.091 40.0585 29.1008 38.3149 31.5665 35.4774C34.1399 32.5185 35.4745 28.8649 35.9735 24.8767C36.0263 24.4501 36.2592 23.6047 36.1301 23.1781C36.1301 23.1781 36.0342 22.8611 33.9129 27.4696L33.9148 27.4716Z" fill="#183041"/>
<path d="M23.8735 31.1139C24.424 30.6177 25.0764 30.1869 25.7704 29.7927C26.8725 29.168 27.4065 27.9538 27.0589 26.8038C27.0538 26.7862 27.0475 26.7686 27.0425 26.7509C26.4216 27.3681 25.4883 28.0609 24.0914 28.7788C24.0889 28.78 24.0864 28.7813 24.0826 28.7826C23.9768 28.8481 23.8685 28.9123 23.7526 28.9765C23.0712 29.3531 22.6493 29.8456 22.4011 30.3809C22.153 29.8469 21.7311 29.3531 21.0497 28.9765C20.9338 28.9123 20.8255 28.8481 20.7197 28.7826C20.7172 28.7813 20.7146 28.78 20.7109 28.7788C19.3128 28.0609 18.3807 27.3681 17.7598 26.7509C17.7548 26.7686 17.7485 26.7862 17.7434 26.8038C17.3958 27.9538 17.9311 29.168 19.0319 29.7927C19.7259 30.1869 20.3783 30.6177 20.9288 31.1139C21.5321 31.6581 21.9666 32.3609 22.2437 33.1242C22.2865 33.308 22.3344 33.4768 22.381 33.6267C22.3986 33.6267 22.381 33.6267 22.3974 33.6267C22.3974 33.6242 22.3986 33.6217 22.3999 33.6191C22.3999 33.6217 22.4012 33.6242 22.4024 33.6267C22.42 33.6267 22.4024 33.6267 22.4188 33.6267C22.4654 33.4768 22.5132 33.3068 22.5561 33.1242C22.8344 32.3609 23.2677 31.6568 23.871 31.1139H23.8735Z" fill="#92220F"/>
<path d="M24.2773 26.9575C24.6953 25.9485 24.2161 24.7917 23.2071 24.3738C22.1982 23.9559 21.0414 24.435 20.6235 25.444C20.2055 26.453 20.6847 27.6097 21.6937 28.0277C22.7027 28.4456 23.8594 27.9665 24.2773 26.9575Z" fill="#92220F"/>
<path d="M15.2945 22.5074L14.3638 17.2332L13.3296 9.08208H11.0544V7.46503H14.5612L15.4167 12.3914L16.6013 20.8716H18.8671V22.5074H15.2945ZM11.0544 22.5074V9.86241H12.6057L12.8689 22.5074H11.0544ZM17.297 20.0912L17.1466 13.0777L17.0338 7.46503H18.8671V20.0912H17.297Z" fill="#183041"/>
<path d="M21.0435 22.5074V7.46503H22.8674V22.5074H21.0435ZM23.9298 15.7289V14.1025H26.4118V15.7289H23.9298ZM23.9298 9.09149V7.46503H26.5998V9.09149H23.9298Z" fill="#183041"/>
<path d="M30.5699 22.6296C29.6235 22.567 28.9403 22.3069 28.5204 21.8493C28.1004 21.3855 27.8811 20.6679 27.8623 19.6964C27.8497 18.8064 27.8403 17.9759 27.8341 17.205C27.8278 16.4341 27.8247 15.6851 27.8247 14.958C27.8247 14.2247 27.8278 13.4789 27.8341 12.7205C27.8403 11.9558 27.8497 11.141 27.8623 10.2761C27.8811 9.30459 28.1004 8.59007 28.5204 8.13253C28.9403 7.66873 29.6235 7.40548 30.5699 7.34281V8.90346C30.2628 8.96613 30.0434 9.09775 29.9118 9.29832C29.7802 9.49888 29.7112 9.79973 29.705 10.2009C29.6799 11.0783 29.6611 11.9025 29.6486 12.6735C29.636 13.4444 29.6298 14.1996 29.6298 14.9392C29.6298 15.6788 29.636 16.4403 29.6486 17.2238C29.6611 18.0072 29.6799 18.8565 29.705 19.7716C29.7112 20.179 29.7802 20.483 29.9118 20.6835C30.0434 20.8778 30.2628 21.0063 30.5699 21.069V22.6296ZM31.6511 22.6296V21.0596C31.9582 21.0032 32.1713 20.8747 32.2904 20.6741C32.4157 20.4736 32.4815 20.1727 32.4878 19.7716C32.5191 18.8753 32.5411 18.0386 32.5536 17.2614C32.5662 16.4842 32.5724 15.7289 32.5724 14.9956C32.5724 14.256 32.5662 13.4977 32.5536 12.7205C32.5411 11.937 32.5191 11.0971 32.4878 10.2009C32.4815 9.79973 32.4157 9.49888 32.2904 9.29832C32.1713 9.09775 31.9582 8.96927 31.6511 8.91286V7.34281C32.5599 7.41175 33.2211 7.67813 33.6348 8.14193C34.0485 8.60574 34.2678 9.31712 34.2929 10.2761C34.318 11.141 34.3336 11.9558 34.3399 12.7205C34.3524 13.4789 34.3587 14.2247 34.3587 14.958C34.3587 15.6913 34.3524 16.4435 34.3399 17.2144C34.3336 17.979 34.318 18.8064 34.2929 19.6964C34.2678 20.6616 34.0485 21.373 33.6348 21.8305C33.2211 22.2881 32.5599 22.5544 31.6511 22.6296Z" fill="#183041"/>
<path d="M103.767 2.52098V1.97887H106.321V2.52098H105.369V5.08882H104.719V2.52098H103.767Z" fill="black"/>
<path d="M106.742 1.97887H107.553L108.409 4.06836H108.446L109.302 1.97887H110.113V5.08882H109.475V3.06462H109.45L108.645 5.07363H108.21L107.406 3.05702H107.38V5.08882H106.742V1.97887Z" fill="black"/>
</svg>
