<svg width="100" height="84" viewBox="0 0 100 84" fill="none" xmlns="http://www.w3.org/2000/svg">
<path d="M33.2344 79.764L32.9052 79.4752L32.6221 79.7926L32.9597 80.0884C33.0539 80.1663 33.1883 80.1553 33.2616 80.0647C33.3349 79.9741 33.3238 79.8397 33.2344 79.764Z" fill="#DBE6EB"/>
<path d="M33.4612 77.9355C33.5018 77.2893 33.2526 76.7812 32.8431 76.5913C32.3856 76.8329 31.9958 77.4006 31.9494 78.0586C31.9341 78.2595 31.9552 78.4457 31.9963 78.6211C31.9963 78.6211 31.8314 78.4531 31.6641 78.284C31.4956 78.1172 31.3366 77.9432 31.3366 77.9432L31.2206 77.8195C31.6269 77.5502 31.9335 77.0272 32.0092 76.4479C32.1005 75.794 31.8747 75.2738 31.4825 75.0483C31.0046 75.2594 30.5872 75.7933 30.4889 76.4555C30.4606 76.6529 30.4688 76.8417 30.5004 77.0184C30.5004 77.0184 30.3436 76.8396 30.1892 76.6621C30.0383 76.4774 29.8885 76.2962 29.8885 76.2962L29.7819 76.1653C30.2075 75.9229 30.545 75.4267 30.6585 74.8481C30.7947 74.1984 30.5948 73.6673 30.2211 73.4156C29.7322 73.595 29.2768 74.1045 29.1394 74.7565C29.1005 74.9518 29.0944 75.1395 29.1166 75.3175C29.1166 75.3175 28.9728 75.1303 28.83 74.9408C28.692 74.7477 28.5539 74.5546 28.5539 74.5546L28.4566 74.4165C28.8944 74.2035 29.2675 73.7245 29.4165 73.1573C29.579 72.5262 29.4436 71.9648 29.0674 71.7002C28.5628 71.8514 28.0857 72.3269 27.9081 72.9653C27.8549 73.1595 27.8371 73.3474 27.844 73.5267L27.3257 72.7326L27.2378 72.5873C27.6877 72.4037 28.093 71.9491 28.2823 71.3897C28.386 71.0792 28.4084 70.785 28.3581 70.5318C28.3114 70.2774 28.2037 70.0579 28.0273 69.9137C27.5188 70.0307 27.0071 70.4748 26.7833 71.1055C26.7136 71.2975 26.6851 71.4832 26.6872 71.6602C26.6872 71.6602 26.5621 71.4587 26.4533 71.2475C26.3399 71.0399 26.2276 70.83 26.2276 70.83L26.1467 70.6822C26.6064 70.5268 27.0392 70.1002 27.2558 69.557C27.4999 68.9509 27.4376 68.378 27.0975 68.0693C26.578 68.1546 26.0422 68.5635 25.7863 69.1757C25.7083 69.3607 25.6656 69.5454 25.6513 69.7262L25.2409 68.8729L25.1683 68.7203C25.6377 68.5931 26.0933 68.1982 26.3608 67.6649C26.6571 67.0724 26.5925 66.5101 26.2992 66.1713C25.7863 66.2188 25.2054 66.5999 24.9127 67.1913C24.8263 67.3693 24.773 67.5518 24.7491 67.7279C24.7491 67.7279 24.6556 67.5095 24.5645 67.2922C24.5172 67.1842 24.4745 67.0726 24.4452 66.9879C24.4147 66.9057 24.3951 66.8492 24.3951 66.8492L24.3377 66.6894C24.8146 66.5951 25.3001 66.2293 25.5903 65.7159C25.7509 65.433 25.8278 65.1476 25.8259 64.8915C25.837 64.6329 25.7681 64.4 25.6255 64.2223C25.1016 64.238 24.5142 64.572 24.1729 65.1486C24.0711 65.3222 23.9953 65.5025 23.9644 65.6752C23.9644 65.6752 23.9448 65.6188 23.9143 65.5365C23.8885 65.4506 23.8517 65.3389 23.8185 65.226C23.7497 64.999 23.6773 64.7733 23.6773 64.7733L23.627 64.611C24.109 64.5485 24.6162 64.2167 24.9337 63.7254C25.2943 63.1816 25.3452 62.6049 25.0752 62.2364C24.5509 62.2167 23.9442 62.512 23.5718 63.0618C23.4593 63.2272 23.3811 63.4005 23.3301 63.5722L23.0948 62.6543L23.0539 62.4908C23.541 62.4601 24.058 62.1624 24.4266 61.6929C24.8299 61.1699 24.8987 60.6048 24.6556 60.217C24.1391 60.163 23.5001 60.4221 23.1038 60.9427C22.9829 61.1011 22.8964 61.2674 22.8347 61.4369C22.8347 61.4369 22.7883 61.2061 22.7406 60.9718C22.7179 60.8552 22.6942 60.741 22.6754 60.6527C22.659 60.5655 22.6524 60.5066 22.6524 60.5066L22.628 60.3393C23.1143 60.3405 23.6624 60.0755 24.0513 59.6305C24.2679 59.3836 24.3993 59.1188 24.4517 58.8655C24.4774 58.7401 24.4818 58.6161 24.465 58.4995C24.4553 58.3804 24.4269 58.2697 24.3761 58.1688C23.8639 58.0817 23.2126 58.2996 22.7676 58.7936C22.636 58.944 22.5411 59.1033 22.4723 59.2693C22.4723 59.2693 22.4388 59.036 22.4041 58.7992C22.3777 58.5634 22.3595 58.3287 22.3595 58.3287L22.3445 58.1601C22.8301 58.1933 23.3927 57.9646 23.8055 57.543C24.0329 57.3101 24.1833 57.0545 24.2453 56.8059C24.3072 56.5572 24.3173 56.3128 24.2215 56.105C23.7137 55.9848 23.0583 56.1626 22.5753 56.6323C22.4247 56.7734 22.3262 56.928 22.2455 57.0883C22.2455 57.0883 22.2389 57.0294 22.2319 56.9409C22.2226 56.8513 22.2141 56.7358 22.2139 56.6154C22.2063 56.377 22.1999 56.1422 22.1999 56.1422L22.1944 55.9723C22.6779 56.0338 23.2528 55.8404 23.6895 55.448C23.9312 55.2279 24.0936 54.984 24.1721 54.7375C24.2612 54.4933 24.2748 54.2476 24.1967 54.0337C23.6968 53.8851 23.0327 54.0205 22.5233 54.4598C22.3679 54.5927 22.2457 54.7417 22.1626 54.895C22.1626 54.895 22.1515 54.6578 22.164 54.4204C22.1706 54.1831 22.1772 53.9458 22.1772 53.9458L22.1822 53.7781C22.6602 53.8691 23.245 53.7099 23.7045 53.3432C23.9593 53.1383 24.1359 52.9012 24.2286 52.6617C24.3332 52.422 24.361 52.1773 24.2946 51.9574C23.8037 51.7779 23.1333 51.8781 22.5987 52.2846C22.4361 52.4081 22.3033 52.549 22.213 52.6988C22.213 52.6988 22.2146 52.641 22.2171 52.5512C22.2196 52.4615 22.2323 52.3445 22.2427 52.2263C22.2635 51.99 22.2843 51.7537 22.2843 51.7537L22.2988 51.5847C22.77 51.7018 23.3634 51.579 23.8457 51.238C24.1113 51.0471 24.2999 50.8218 24.408 50.5868C24.5138 50.3506 24.5663 50.1092 24.5105 49.8856C24.0324 49.68 23.3544 49.7412 22.7959 50.1186C22.6237 50.2316 22.4967 50.3665 22.3921 50.5094C22.3921 50.5094 22.3973 50.4503 22.4045 50.3629C22.4094 50.2743 22.4257 50.1561 22.4443 50.039C22.4793 49.8037 22.5131 49.5707 22.5131 49.5707L22.5382 49.404C23.0015 49.5495 23.6036 49.4573 24.1027 49.1421C24.378 48.9676 24.5831 48.7503 24.7031 48.5211C24.7643 48.407 24.8018 48.2874 24.8229 48.1714C24.8474 48.0543 24.8532 47.9397 24.8329 47.8243C24.3674 47.5926 23.6831 47.6185 23.11 47.9653C22.9413 48.0712 22.8035 48.198 22.693 48.3351C22.693 48.3351 22.728 48.0997 22.7618 47.8668L22.8888 47.2361C23.3441 47.4042 23.9501 47.3462 24.4684 47.0578C25.0441 46.7358 25.332 46.233 25.2604 45.7759C24.8088 45.5216 24.1193 45.5098 23.5495 45.8318C23.376 45.9295 23.2299 46.0493 23.1087 46.1782C23.1087 46.1782 23.1567 45.9463 23.2046 45.7144C23.2292 45.5972 23.2526 45.4824 23.2716 45.3948C23.2906 45.3073 23.3065 45.2504 23.3065 45.2504L23.3506 45.087C23.7967 45.28 24.4055 45.2526 24.9417 44.9877C25.5355 44.6949 25.8578 44.2059 25.8086 43.7449C25.3626 43.467 24.6869 43.4267 24.0932 43.7195C23.9124 43.8078 23.7615 43.9194 23.6308 44.0437L23.9224 42.9649C24.3665 43.1803 24.9519 43.1768 25.5097 42.9399C26.1216 42.6765 26.4724 42.2013 26.4503 41.7388C26.0182 41.4383 25.3446 41.3696 24.7327 41.6331C24.5472 41.7132 24.3879 41.8179 24.2524 41.934L24.552 41.0321L24.6067 40.8709C25.0357 41.1054 25.6392 41.1312 26.1843 40.9146C26.337 40.8537 26.4695 40.7801 26.5877 40.6937C26.713 40.6108 26.8169 40.5175 26.9042 40.4161C27.0789 40.2133 27.1729 39.9832 27.1761 39.753C26.7603 39.4369 26.0863 39.3387 25.4599 39.5717C25.2696 39.6436 25.1031 39.7389 24.9616 39.8492L25.3134 38.9667L25.3753 38.809C25.7926 39.0613 26.3976 39.1143 26.9572 38.9222C27.2675 38.8147 27.5157 38.6476 27.6881 38.4496C27.7742 38.3506 27.8414 38.2424 27.8861 38.132C27.9391 38.0228 27.9684 37.908 27.9777 37.7922C27.5782 37.4606 26.9015 37.3317 26.269 37.5412C26.0821 37.606 25.9167 37.6988 25.7764 37.8068C25.7764 37.8068 25.8634 37.585 25.9517 37.3667C26.0459 37.1484 26.1472 36.9335 26.1472 36.9335L26.2209 36.7816C26.6231 37.0471 27.226 37.1284 27.8012 36.9586C28.4352 36.7704 28.8396 36.3359 28.8706 35.8669C28.478 35.5151 27.8188 35.3684 27.1824 35.5554C26.9907 35.612 26.8205 35.6967 26.6718 35.7976L27.0723 34.9358L27.146 34.7839C27.5425 35.0671 28.1291 35.164 28.7069 35.0131C29.3553 34.8495 29.7835 34.4324 29.8406 33.9702C29.462 33.6076 28.806 33.436 28.1564 33.5961C27.9598 33.6445 27.7837 33.7233 27.6326 33.8172L28.0781 32.9773L28.1566 32.8277C28.5438 33.124 29.1355 33.2468 29.7134 33.1135C30.3562 32.9677 30.7678 32.5485 30.8592 32.0941C30.4958 31.7184 29.8419 31.5244 29.1837 31.6597C28.9895 31.7034 28.818 31.7786 28.6657 31.869C28.6657 31.869 28.7788 31.6599 28.8896 31.4496C29.0123 31.2451 29.1338 31.043 29.1338 31.043L28.7666 30.8326C28.7666 30.8326 28.6439 31.0371 28.5212 31.2416C28.4069 31.453 28.2961 31.6633 28.2961 31.6633C28.288 31.4804 28.2562 31.2919 28.189 31.098C27.9867 30.4689 27.5018 29.9931 26.9845 29.8742C26.5904 30.1846 26.4707 30.8306 26.6908 31.4712C26.8902 32.052 27.3249 32.4741 27.7871 32.6279L27.7075 32.7799L27.2596 33.6245C27.2492 33.4464 27.2163 33.2603 27.1444 33.07C26.9149 32.4424 26.4113 31.981 25.8919 31.8845C25.5241 32.2194 25.396 32.8525 25.6265 33.4777C25.8423 34.0488 26.3017 34.4623 26.7649 34.596L26.69 34.7504L26.2908 35.6216C26.2722 35.4424 26.2274 35.2564 26.1496 35.0661C25.8907 34.4448 25.3672 34.0002 24.8481 33.9214C24.5006 34.2749 24.4032 34.9171 24.6621 35.5384C24.8966 36.101 25.3569 36.4886 25.8293 36.6092L25.7544 36.7635C25.7544 36.7635 25.652 36.9808 25.5602 37.2003C25.4731 37.422 25.3826 37.645 25.3826 37.645C25.3556 37.4648 25.3015 37.2801 25.2131 37.0935C24.9343 36.483 24.4099 36.0643 23.8791 36.0034C23.7917 36.093 23.7186 36.2013 23.6669 36.3199C23.6188 36.4433 23.5886 36.5782 23.5785 36.72C23.5571 37.0059 23.6152 37.3215 23.7593 37.6291C24.0209 38.1843 24.5011 38.5551 24.9768 38.6568L24.9138 38.8169L24.5586 39.7064C24.5293 39.5309 24.474 39.3486 24.3845 39.1703C24.087 38.5742 23.5345 38.1712 23.0064 38.135C22.841 38.3247 22.7438 38.5797 22.7236 38.8632C22.7135 39.005 22.7235 39.1536 22.756 39.3043C22.7932 39.4573 22.8529 39.6124 22.9326 39.7625C23.2237 40.3115 23.7201 40.6608 24.1979 40.7401L24.1432 40.9013L23.8401 41.8102C23.8014 41.636 23.7367 41.455 23.6378 41.278C23.3085 40.6929 22.7386 40.3137 22.2119 40.2988C21.9027 40.6944 21.8798 41.3462 22.2091 41.9313C22.4998 42.4566 23.0327 42.7914 23.5067 42.8483L23.4615 43.0141L23.2117 43.9401C23.1636 43.7672 23.0883 43.5899 22.9788 43.4165C22.619 42.8459 22.0281 42.4918 21.5041 42.5016C21.2199 42.9123 21.2301 43.5684 21.5922 44.1401C21.9171 44.6556 22.4401 44.9562 22.9269 44.9929L22.8816 45.1587C22.8816 45.1587 22.8623 45.2168 22.8468 45.3031C22.8277 45.3907 22.8032 45.5079 22.7786 45.625C22.7295 45.8593 22.6804 46.0936 22.6804 46.0936C22.6228 45.922 22.5369 45.7483 22.4181 45.5821C22.0207 45.0286 21.4302 44.7039 20.8994 44.7398C20.6342 45.1656 20.687 45.8248 21.0784 46.3784C21.4338 46.8794 21.9695 47.1539 22.4571 47.1646L22.4225 47.3326L22.3266 47.8024L22.258 48.2765C22.1898 48.1085 22.0958 47.9397 21.9663 47.7772C21.5598 47.2485 20.9519 46.9536 20.4227 47.0166C20.3579 47.126 20.311 47.2469 20.2854 47.3783C20.2633 47.5084 20.2674 47.6512 20.2892 47.7937C20.3351 48.08 20.4638 48.3771 20.6747 48.6437C21.057 49.1255 21.6089 49.3726 22.0974 49.3573L22.0735 49.5276C22.0735 49.5276 22.0374 49.7653 22.0048 50.0018C21.985 50.1212 21.9722 50.2382 21.9662 50.3292C21.9578 50.419 21.9526 50.4781 21.9526 50.4781C21.874 50.3138 21.7681 50.151 21.6411 49.9955C21.2125 49.4883 20.5826 49.2268 20.0607 49.3168C19.9478 49.5436 19.8979 49.8157 19.9627 50.0994C20.0239 50.3843 20.1703 50.6753 20.3988 50.9299C20.8091 51.3901 21.376 51.6064 21.8606 51.5628L21.8449 51.7341C21.8449 51.7341 21.823 51.9728 21.8035 52.2127C21.7954 52.332 21.7815 52.4514 21.7767 52.54C21.7742 52.6297 21.7714 52.69 21.7714 52.69C21.6821 52.5293 21.5764 52.3724 21.4389 52.2265C20.981 51.7433 20.3373 51.5161 19.8206 51.638C19.7171 51.8694 19.6933 52.1483 19.7628 52.4284C19.8405 52.7096 20.0032 52.9909 20.2458 53.2347C20.6819 53.6721 21.2601 53.8529 21.7432 53.7822L21.7393 53.9534C21.7393 53.9534 21.7316 54.1931 21.7262 54.4339C21.7149 54.6749 21.7249 54.9144 21.7249 54.9144C21.6239 54.7598 21.5088 54.6101 21.3643 54.4725C20.8784 54.0168 20.2222 53.8275 19.7152 53.9776C19.626 54.2159 19.6199 54.4946 19.7035 54.7698C19.7977 55.0472 19.9768 55.319 20.2333 55.5461C20.6963 55.9584 21.2823 56.1048 21.7592 56.0047L21.7648 56.1746C21.7648 56.1746 21.7723 56.4129 21.7788 56.6536C21.779 56.774 21.7887 56.8931 21.7981 56.9827C21.8074 57.0723 21.8105 57.1325 21.8105 57.1325C21.706 56.985 21.5697 56.8426 21.4183 56.7134C20.908 56.2899 20.2416 56.1397 19.7433 56.3204C19.6719 56.5644 19.6717 56.843 19.7859 57.1154C19.8954 57.3856 20.0909 57.6477 20.3579 57.8593C20.844 58.2418 21.4356 58.3528 21.9062 58.2232L21.92 58.3942C21.92 58.3942 21.9382 58.6348 21.9647 58.8706C21.9994 59.1074 22.0341 59.3442 22.0341 59.3442C21.9214 59.2016 21.7806 59.0687 21.6127 58.9491C21.0686 58.559 20.4039 58.4478 19.913 58.6614C19.8826 58.7845 19.8736 58.918 19.8882 59.0513C19.9087 59.1844 19.9516 59.3196 20.0134 59.4523C20.1381 59.7152 20.3477 59.9665 20.6262 60.1602C21.1321 60.5142 21.7291 60.5838 22.1899 60.426L22.2132 60.5957C22.2132 60.5957 22.2198 60.6546 22.2374 60.7453C22.2562 60.8336 22.2788 60.9502 22.3027 61.0703C22.3503 61.3046 22.3968 61.5413 22.3968 61.5413C22.2772 61.407 22.1305 61.2801 21.9557 61.1748C21.3731 60.8218 20.703 60.7519 20.229 60.9972C20.1524 61.4998 20.4617 62.0957 21.0385 62.4488C21.557 62.7707 22.1735 62.7999 22.6198 62.6116L22.6619 62.7787L22.8997 63.7096C22.7731 63.5836 22.6217 63.4662 22.44 63.3692C21.846 63.0518 21.1587 63.0293 20.7087 63.3038C20.6688 63.8095 20.9944 64.3899 21.6025 64.7025C22.1583 64.9839 22.7662 64.9766 23.2003 64.7589L23.2506 64.9212C23.2506 64.9212 23.3218 65.1493 23.3919 65.3799C23.4275 65.4939 23.4631 65.608 23.4889 65.6939C23.5182 65.7785 23.5402 65.8361 23.5402 65.8361C23.396 65.7221 23.2436 65.613 23.0596 65.5267C22.453 65.2471 21.7675 65.2695 21.3356 65.5733C21.3257 65.8296 21.4138 66.0953 21.5796 66.3341C21.7559 66.5692 22.0121 66.7727 22.3278 66.9082C22.8949 67.1541 23.4987 67.1067 23.9172 66.8609L23.977 67.0219C23.977 67.0219 23.9965 67.0783 24.0294 67.1617C24.0587 67.2463 24.1002 67.3603 24.1499 67.4695C24.2423 67.6903 24.337 67.9123 24.337 67.9123C24.1929 67.8042 24.0242 67.7106 23.8297 67.6398C23.1954 67.4054 22.5281 67.4689 22.1083 67.8021C22.1133 68.3178 22.5527 68.8331 23.1846 69.0664C23.7596 69.2778 24.3606 69.188 24.7622 68.9164L24.8372 69.0702L25.2536 69.9351C25.1049 69.8366 24.9316 69.7525 24.7373 69.6934C24.0916 69.5005 23.4143 69.6149 23.0243 69.9713C23.0846 70.4758 23.518 70.9793 24.1765 71.1638C24.7758 71.3314 25.3692 71.2027 25.7539 70.9053L25.836 71.0566C25.836 71.0566 25.9507 71.2677 26.0654 71.4788C26.1765 71.6911 26.3029 71.8962 26.3029 71.8962C26.1425 71.8096 25.9634 71.7374 25.7692 71.6901C25.1205 71.5338 24.4543 71.6917 24.0871 72.0738C24.129 72.3259 24.2618 72.5722 24.4767 72.7703C24.6927 72.966 24.9825 73.1184 25.315 73.1887C25.9163 73.322 26.4974 73.158 26.863 72.8338L26.9533 72.9802L27.4788 73.7837C27.3173 73.7054 27.1359 73.6438 26.9349 73.6108C26.269 73.5019 25.6116 73.7022 25.2717 74.1064C25.3969 74.5983 25.8897 75.0398 26.5684 75.1403C27.1821 75.2297 27.7546 75.0293 28.0975 74.6852L28.1971 74.8245C28.1971 74.8245 28.3375 75.0187 28.4768 75.2154C28.6219 75.406 28.767 75.5967 28.767 75.5967C28.5998 75.5302 28.4127 75.4805 28.2083 75.4606C27.5405 75.3918 26.9036 75.6285 26.5876 76.056C26.7223 76.5525 27.2758 76.9413 27.9447 77.0077C28.5615 77.0605 29.1229 76.8224 29.4419 76.455L29.5509 76.5871L29.8552 76.9576C30.0132 77.1399 30.1699 77.3186 30.1699 77.3186C29.9981 77.2617 29.81 77.2261 29.6045 77.2203C28.9373 77.1929 28.3115 77.4731 28.0252 77.918C28.1951 78.4023 28.7649 78.7637 29.445 78.7827C30.0672 78.7942 30.6081 78.5197 30.9021 78.1314L31.0204 78.2563C31.0204 78.2563 31.1807 78.4338 31.3515 78.6017L31.6873 78.9435C31.5132 78.8972 31.3229 78.8724 31.12 78.8795C30.4427 78.903 29.8468 79.2182 29.588 79.6852C29.8002 80.1548 30.3897 80.4877 31.0775 80.4547C31.7004 80.4283 32.2195 80.1081 32.4801 79.6978L32.6055 79.8143L32.8885 79.4969L32.7644 79.3839C33.1467 79.0795 33.4082 78.5405 33.4484 77.9557L33.4612 77.9355Z" fill="#DBE6EB"/>
<path d="M29.2138 30.8886C29.666 30.797 30.1098 30.5049 30.3945 30.027C30.737 29.4539 30.7551 28.7938 30.5038 28.3141C29.9748 28.298 29.4004 28.6295 29.0509 29.2168C28.7581 29.7054 28.7056 30.2431 28.8453 30.6747L28.7562 30.8221L29.1234 31.0325L29.2126 30.8851L29.2138 30.8886Z" fill="#DBE6EB"/>
<path d="M73.8527 60.6808C73.6514 60.7268 73.4717 60.801 73.3146 60.8891C73.3146 60.8891 73.4349 60.6834 73.554 60.4742C73.6683 60.2628 73.7743 60.0502 73.7743 60.0502L73.8492 59.8958C74.2388 60.1934 74.8304 60.3161 75.4175 60.1521C76.0657 59.9708 76.5122 59.498 76.5723 59.0051C76.1891 58.6461 75.5182 58.5113 74.8676 58.6914C74.6712 58.7457 74.4963 58.8281 74.344 58.9243L74.7764 58.0693L74.8512 57.9149C75.2453 58.197 75.8545 58.3019 76.439 58.119C77.0739 57.9107 77.4906 57.4206 77.526 56.9244C77.1276 56.5786 76.4534 56.4686 75.8197 56.6745C75.628 56.737 75.4591 56.8252 75.3116 56.9297L75.6977 56.0551L75.7679 55.8985C76.1748 56.1663 76.7754 56.2464 77.3549 56.0435C77.9943 55.8198 78.4264 55.3283 78.4274 54.8243C78.015 54.4893 77.3411 54.4029 76.7207 54.6358C76.5267 54.7031 76.3555 54.796 76.2104 54.9016C76.2104 54.9016 76.3057 54.6809 76.4023 54.4638C76.4869 54.2408 76.5716 54.0179 76.5716 54.0179L76.6322 53.8566C77.0588 53.6969 77.4474 53.3251 77.65 52.7927C77.8926 52.1536 77.7997 51.4984 77.4596 51.0929C76.9273 51.1925 76.4201 51.6152 76.182 52.239C75.9828 52.7584 76.0281 53.2878 76.2361 53.6997L76.1755 53.8609C76.1755 53.8609 76.0908 54.0839 76.0073 54.3044L75.8165 54.7399C75.7932 54.5643 75.7462 54.3831 75.6602 54.2035C75.3579 53.5992 74.7996 53.2081 74.2819 53.1565C73.9816 53.5095 73.9048 54.0912 74.1905 54.6874C74.4436 55.2238 74.9087 55.6137 75.3787 55.7331L75.3097 55.8874L74.9259 56.7573C74.9049 56.5769 74.8566 56.3922 74.7753 56.209C74.5024 55.5985 73.9592 55.1883 73.439 55.1178C73.1078 55.4499 73.0453 56.0444 73.3217 56.6537C73.5619 57.1985 74 57.6017 74.4702 57.7389L74.3965 57.8909L73.9628 58.7365C73.95 58.5572 73.9136 58.3724 73.837 58.1856C73.5924 57.5712 73.0667 57.1431 72.5474 57.0525C72.1982 57.3672 72.1073 57.9537 72.3519 58.5681C72.5746 59.125 73.0117 59.5482 73.4715 59.7009L73.3978 59.8529C73.3978 59.8529 73.2917 60.0654 73.1762 60.2734C73.0559 60.479 72.9391 60.6834 72.9391 60.6834C72.9346 60.5053 72.9065 60.3215 72.8428 60.1322C72.6158 59.5057 72.0968 59.0516 71.588 58.9456C71.5004 59.0233 71.4307 59.1186 71.3777 59.2278C71.3176 59.3336 71.2753 59.451 71.2509 59.5799C71.2021 59.8379 71.2245 60.1362 71.3321 60.4466C71.5265 61.0073 71.9438 61.4473 72.4003 61.6189L72.3147 61.7651L71.8394 62.5876C71.8384 62.4082 71.8113 62.2161 71.7488 62.0245C71.5452 61.386 71.0509 60.9174 70.5442 60.7889C70.363 60.9327 70.2416 61.1525 70.1916 61.4128C70.1661 61.5441 70.1595 61.6847 70.1695 61.8333C70.1748 61.9796 70.2014 62.1304 70.2458 62.2868C70.4119 62.8514 70.8069 63.307 71.2566 63.4988L71.1639 63.6415L70.641 64.4351C70.6495 64.2544 70.633 64.0646 70.5799 63.8716C70.4082 63.228 69.9373 62.7414 69.4338 62.5881C69.0557 62.8594 68.9008 63.4267 69.0726 64.0703C69.2343 64.6562 69.5915 65.117 70.0356 65.3324L69.3688 66.2292C69.3879 66.0508 69.3797 65.862 69.3372 65.6654C69.1996 65.0178 68.7521 64.5132 68.2554 64.3339C67.8618 64.5829 67.6748 65.1376 67.8159 65.7839C67.941 66.3667 68.2987 66.8629 68.7229 67.0951L68.6218 67.2309C68.6218 67.2309 68.5893 67.2797 68.5299 67.3477C68.4729 67.4168 68.3973 67.5063 68.3205 67.5981L68.0155 67.9606C68.0429 67.7832 68.0478 67.5978 68.0147 67.3999C67.9149 66.753 67.48 66.2165 66.9996 66.0215C66.5951 66.2507 66.3761 66.7868 66.483 67.4371C66.5774 68.0227 66.9058 68.5369 67.3208 68.7881L66.9041 69.2782C66.7409 69.4513 66.5788 69.6221 66.5788 69.6221C66.6157 69.4493 66.63 69.2626 66.6111 69.0657C66.5312 68.4021 66.1256 67.8475 65.6555 67.6253C65.5558 67.6796 65.4658 67.7562 65.389 67.848C65.3098 67.9387 65.2402 68.0399 65.1885 68.1585C65.0827 68.3947 65.0391 68.6903 65.0725 69.0145C65.1338 69.6016 65.4341 70.1316 65.8351 70.4053L65.7198 70.5283C65.7198 70.5283 65.5566 70.7014 65.3945 70.8721C65.3141 70.9593 65.2314 71.0452 65.1648 71.1039C65.1006 71.1637 65.0574 71.2043 65.0574 71.2043C65.1049 71.0338 65.1322 70.8505 65.1144 70.6453C65.0651 69.9731 64.6959 69.4038 64.2361 69.1544C64.0259 69.249 63.8688 69.4397 63.7488 69.669C63.6312 69.8994 63.5697 70.1893 63.5854 70.5137C63.6137 71.1024 63.8835 71.6469 64.2707 71.9432L64.1469 72.0592C64.1469 72.0592 63.9742 72.2218 63.8014 72.3844C63.715 72.4657 63.6311 72.5482 63.5621 72.6057C63.4931 72.6631 63.4487 72.7003 63.4487 72.7003C63.5081 72.5355 63.5389 72.3451 63.5353 72.1409C63.5237 71.4694 63.1873 70.8809 62.7426 70.6065C62.5287 70.6905 62.3573 70.8625 62.2302 71.0942C62.0995 71.3153 62.0226 71.6007 62.0195 71.9277C62.0159 72.5156 62.2516 73.0758 62.6201 73.3925L62.4916 73.5003C62.4916 73.5003 62.3093 73.6523 62.1269 73.8044C61.9482 73.9612 61.7551 74.0993 61.7551 74.0993C61.824 73.9391 61.8654 73.7509 61.8736 73.5466C61.9033 72.8746 61.5986 72.2692 61.1724 71.9686C60.9561 72.0396 60.7715 72.2024 60.6349 72.4235C60.4899 72.6378 60.3964 72.9151 60.3756 73.2423C60.3366 73.8306 60.5406 74.4018 60.8893 74.7411L60.7524 74.8419C60.7524 74.8419 60.5605 74.9835 60.3722 75.1239C60.2786 75.1958 60.179 75.262 60.1053 75.3112C60.0315 75.3605 59.9811 75.3918 59.9811 75.3918C60.0583 75.2327 60.1164 75.0585 60.1352 74.8505C60.2039 74.1828 59.9355 73.5568 59.5303 73.2312C59.3078 73.2846 59.1209 73.4462 58.9651 73.6464C58.8094 73.8525 58.7005 74.1253 58.6584 74.448C58.5828 75.0332 58.7538 75.6178 59.078 75.9775L58.9363 76.0701C58.9363 76.0701 58.7396 76.2035 58.5392 76.3263C58.3353 76.4444 58.1278 76.5637 58.1278 76.5637C58.2144 76.4092 58.282 76.2337 58.3186 76.0373C58.4323 75.3797 58.2003 74.7332 57.8137 74.3873C57.703 74.4099 57.5961 74.4548 57.4989 74.5221C57.3993 74.5823 57.3047 74.6625 57.2197 74.7592C57.0544 74.9547 56.9266 75.2242 56.8667 75.5472C56.758 76.1281 56.8891 76.7226 57.1911 77.1038L57.0446 77.1882C57.0446 77.1882 56.9942 77.2194 56.9156 77.2605C56.837 77.3016 56.729 77.3548 56.6246 77.4068C56.4146 77.5132 56.201 77.6208 56.201 77.6208C56.2948 77.4698 56.3754 77.2977 56.4227 77.1035C56.5862 76.4701 56.3942 75.8078 56.032 75.4356C55.577 75.4847 55.1734 75.8873 55.0146 76.529C54.8729 77.1115 54.9602 77.6994 55.2377 78.101L55.0839 78.1701L54.2174 78.5535C54.3207 78.4071 54.4083 78.2384 54.4686 78.0477C54.67 77.4149 54.5263 76.7556 54.1863 76.356C53.7297 76.3721 53.3083 76.769 53.1044 77.3888C52.9187 77.9411 52.9696 78.5437 53.2177 78.9633L53.0591 79.0242C53.0591 79.0242 52.8382 79.1107 52.6161 79.1936C52.5045 79.2362 52.3953 79.28 52.313 79.3105C52.2295 79.3375 52.1731 79.3571 52.1731 79.3571C52.2896 79.2258 52.3867 79.0559 52.4576 78.8673C52.6957 78.2436 52.5955 77.5732 52.286 77.1531C52.0581 77.1511 51.8349 77.2423 51.6363 77.4099C51.434 77.567 51.2574 77.804 51.1347 78.1053C50.9146 78.6497 50.9242 79.2587 51.1454 79.6916L50.9844 79.7455C50.9844 79.7455 50.9279 79.7651 50.8445 79.792C50.7598 79.8214 50.6481 79.8581 50.5316 79.8867C50.3022 79.9484 50.0751 80.0114 50.0751 80.0114C50.1987 79.8836 50.3078 79.7312 50.3954 79.5507C50.6786 78.9548 50.6184 78.2626 50.3382 77.8304C49.8893 77.8062 49.409 78.1071 49.127 78.7066C48.8714 79.2455 48.8432 79.8479 49.0362 80.2965L48.8714 80.3339L47.9473 80.5397C48.078 80.4154 48.199 80.2687 48.296 80.0929C48.6161 79.5118 48.6056 78.838 48.3534 78.3783C47.9004 78.3022 47.4107 78.6103 47.0869 79.1749C46.7944 79.6812 46.7284 80.2828 46.8897 80.7424L46.7236 80.7704C46.7236 80.7704 46.4904 80.8098 46.256 80.8515C46.0228 80.8968 45.787 80.9232 45.787 80.9232C45.925 80.8142 46.0556 80.6781 46.1633 80.5044C46.5201 79.9383 46.5521 79.2615 46.3292 78.7897C46.1067 78.7404 45.8701 78.7928 45.639 78.9125C45.409 79.0297 45.1919 79.2294 45.0122 79.5031C44.69 79.998 44.5839 80.5977 44.7181 81.0647L44.5496 81.0856L43.6051 81.1701C43.7502 81.0645 43.8867 80.9342 44.0064 80.7722C44.4001 80.2387 44.4759 79.5685 44.2824 79.0786C43.8428 78.9446 43.3146 79.187 42.9218 79.7064C42.5662 80.1733 42.4234 80.7641 42.527 81.2397L42.3583 81.2488C42.3583 81.2488 42.1212 81.2599 41.8841 81.271C41.648 81.2738 41.4109 81.2791 41.4109 81.2791C41.562 81.1852 41.7081 81.0654 41.8373 80.9139C42.262 80.4013 42.3826 79.7294 42.2209 79.2343C41.7908 79.099 41.251 79.2684 40.8251 79.7775C40.4409 80.2248 40.2625 80.7982 40.3332 81.2813L40.1644 81.2786C40.1644 81.2786 39.9259 81.2744 39.6909 81.269L39.2184 81.2451C39.3768 81.1606 39.5289 81.0525 39.6665 80.9081C40.1234 80.4198 40.2843 79.7616 40.1566 79.2567C39.7368 79.0882 39.1884 79.2329 38.7314 79.7094C38.3209 80.1262 38.1022 80.6919 38.1423 81.1777L37.9733 81.1632C37.9733 81.1632 37.7371 81.1484 37.503 81.1169C37.269 81.0914 37.0326 81.0647 37.0326 81.0647C37.1946 80.9908 37.3551 80.8897 37.5033 80.7534C37.9914 80.3096 38.196 79.652 38.1026 79.1432C37.7 78.9391 37.149 79.059 36.6643 79.4898C36.231 79.881 35.966 80.4212 35.966 80.9111L35.8004 80.8836L35.3698 80.8037C35.255 80.7803 35.1437 80.8525 35.1168 80.9685C35.091 81.0821 35.1679 81.1957 35.2851 81.2202L35.7263 81.3023L35.8955 81.3286C35.7345 81.7874 35.8067 82.3944 36.1692 82.8988C36.569 83.4594 37.1977 83.7175 37.6955 83.5923C37.9021 83.0999 37.7797 82.4392 37.38 81.8904C37.2577 81.7254 37.1227 81.5925 36.9786 81.4844C36.9786 81.4844 37.2173 81.5123 37.4549 81.5366C37.6925 81.5668 37.9335 81.5839 37.9335 81.5839L38.1049 81.5996C37.9818 82.0709 38.1011 82.6655 38.4952 83.1471C38.9299 83.666 39.5665 83.8898 40.0532 83.7269C40.2255 83.2267 40.0581 82.5618 39.6236 82.0547C39.4907 81.8993 39.3451 81.7701 39.1964 81.6715C39.1964 81.6715 39.4373 81.6828 39.6748 81.6953C39.9156 81.7007 40.1541 81.7049 40.1541 81.7049L40.3253 81.7087C40.2354 82.1843 40.3947 82.775 40.818 83.2267C41.2866 83.7122 41.9322 83.9051 42.4055 83.7035C42.5433 83.1895 42.3373 82.544 41.87 82.062C41.7277 81.9138 41.5753 81.7988 41.4172 81.7075C41.4172 81.7075 41.6567 81.7034 41.8963 81.6993C42.1358 81.6894 42.3765 81.6771 42.3765 81.6771L42.5475 81.6691C42.4884 82.1538 42.6841 82.7239 43.1366 83.1517C43.6345 83.625 44.2898 83.7375 44.7512 83.5302C44.8572 83.0154 44.6087 82.3727 44.111 81.9172C43.9606 81.7797 43.8 81.6754 43.6385 81.597L44.5948 81.5124L44.7657 81.4926C44.7373 81.9805 44.9695 82.536 45.4451 82.9281C45.7098 83.1445 46.0065 83.2767 46.2927 83.3276C46.5813 83.3737 46.8569 83.3255 47.0809 83.2024C47.1537 82.6775 46.8642 82.0589 46.341 81.6437C46.1837 81.5205 46.0161 81.4245 45.8488 81.3522C45.8488 81.3522 46.087 81.3269 46.3237 81.2804C46.5604 81.2398 46.7972 81.1992 46.7972 81.1992L46.9668 81.17C46.9715 81.6562 47.2377 82.2019 47.7402 82.5689C48.2939 82.9695 48.9589 83.0017 49.3901 82.7357C49.431 82.2099 49.0991 81.606 48.548 81.2183C48.3813 81.1023 48.208 81.0182 48.0385 80.9624L48.9756 80.754L49.1428 80.7178C49.177 81.2037 49.4784 81.7313 50.0016 82.0496C50.5783 82.4027 51.2526 82.4277 51.6608 82.1124C51.6626 81.5764 51.2994 81.013 50.7227 80.6599C50.5466 80.551 50.3687 80.4765 50.1946 80.4301C50.1946 80.4301 50.4252 80.366 50.6582 80.303C50.7747 80.2745 50.8875 80.2353 50.9746 80.2072C51.0616 80.179 51.1168 80.1618 51.1168 80.1618L51.2803 80.1091C51.3475 80.5934 51.6828 81.0934 52.2269 81.3867C52.5287 81.5507 52.8483 81.6236 53.141 81.6189C53.4311 81.6013 53.6932 81.5025 53.8895 81.3396C53.8584 80.8112 53.4516 80.2589 52.8566 79.9556C52.6761 79.8622 52.496 79.81 52.3161 79.7697C52.3161 79.7697 52.3726 79.7501 52.4596 79.7219C52.543 79.689 52.6546 79.6464 52.7663 79.6038C52.9895 79.5184 53.2139 79.4308 53.2139 79.4308L53.3725 79.3699C53.4703 79.8456 53.8408 80.3274 54.4058 80.5898C55.0278 80.8739 55.6852 80.7704 56.0576 80.426C55.9911 79.9039 55.5516 79.3768 54.9346 79.1068C54.7483 79.0252 54.5624 78.979 54.3827 78.9564L55.261 78.567L55.4183 78.4966C55.5467 78.9637 55.9512 79.4298 56.525 79.6378C57.1594 79.8722 57.8189 79.7462 58.1662 79.375C58.0655 78.8509 57.5958 78.3678 56.9579 78.1288C56.7658 78.0591 56.5765 78.02 56.3969 78.0092C56.3969 78.0092 56.6105 77.9016 56.8252 77.7916C56.9307 77.7372 57.0387 77.684 57.1208 77.6417C57.1994 77.6006 57.2533 77.5681 57.2533 77.5681L57.401 77.4813C57.5612 77.9433 57.9888 78.3679 58.5776 78.5449C58.9046 78.6449 59.2293 78.6528 59.513 78.588C59.6554 78.5545 59.7882 78.5045 59.9055 78.4381C60.0191 78.3671 60.1184 78.2774 60.1963 78.1773C60.0591 77.662 59.5614 77.2064 58.9182 77.0205C58.7215 76.9603 58.5288 76.9343 58.347 76.9341L58.762 76.6954C58.9671 76.569 59.1638 76.4356 59.1638 76.4356L59.3067 76.3407C59.4962 76.7905 59.9483 77.1888 60.5509 77.3315C60.8823 77.4101 61.2092 77.4015 61.4892 77.3202C61.7727 77.2436 61.9925 77.0687 62.14 76.8615C61.9734 76.3583 61.443 75.9279 60.7944 75.7893C60.5992 75.7503 60.403 75.7314 60.2226 75.7407C60.2226 75.7407 60.2729 75.7094 60.3479 75.6577C60.424 75.6096 60.5235 75.5435 60.6183 75.4692C60.8102 75.3276 61.0032 75.1836 61.0032 75.1836L61.1401 75.0828C61.3566 75.5193 61.8344 75.889 62.4448 75.9973C62.7819 76.0582 63.1073 76.0284 63.3824 75.933C63.6527 75.8294 63.8654 75.651 63.9973 75.4334C63.8014 74.9423 63.2466 74.5441 62.5879 74.4446C62.3904 74.4163 62.2016 74.4185 62.0176 74.4349C62.0176 74.4349 62.2119 74.2945 62.3941 74.1365C62.5776 73.982 62.7635 73.8287 62.7635 73.8287L62.8955 73.7197C63.139 74.1429 63.6365 74.484 64.2524 74.5568C64.594 74.5964 64.9157 74.5501 65.1847 74.4371C65.4453 74.3171 65.6495 74.1258 65.7696 73.9024C65.5455 73.4212 64.9675 73.0586 64.3057 72.9957C64.106 72.9781 63.9173 72.9921 63.7359 73.0214C63.7359 73.0214 63.7814 72.9819 63.8504 72.9245C63.9193 72.867 64.0045 72.7821 64.0909 72.7008C64.2648 72.5359 64.4411 72.372 64.4411 72.372L64.5659 72.2537C64.8317 72.6613 65.3524 72.9726 65.9679 73.01C66.3093 73.0319 66.6271 72.9632 66.8901 72.8385C67.1541 72.7114 67.337 72.5038 67.444 72.277C67.1929 71.8091 66.5964 71.4786 65.9327 71.4559C65.7355 71.4512 65.5386 71.47 65.3609 71.5099C65.3609 71.5099 65.4041 71.4693 65.4694 71.4071C65.536 71.3485 65.6223 71.2613 65.7027 71.1742C65.867 70.9987 66.0326 70.8267 66.0326 70.8267L66.1515 70.7025C66.4419 71.0957 66.9741 71.3773 67.5926 71.3782C67.9326 71.3788 68.2456 71.296 68.4988 71.1548C68.6243 71.0837 68.7378 71.0009 68.8275 70.9007C68.9148 70.7993 68.9831 70.6887 69.0265 70.5689C68.7484 70.1143 68.1405 69.8194 67.4737 69.8274C67.2659 69.8263 67.0751 69.8569 66.901 69.9074C66.901 69.9074 67.0653 69.7319 67.2309 69.56L67.5405 69.1939L67.651 69.0627C67.9613 69.4391 68.5108 69.691 69.1219 69.6589C69.799 69.6236 70.3494 69.257 70.5196 68.7852C70.2192 68.3461 69.5988 68.0832 68.918 68.1138C68.7128 68.1257 68.5232 68.1658 68.3539 68.2245L68.6612 67.8572C68.738 67.7654 68.8148 67.6736 68.8718 67.6044C68.9288 67.5353 68.9636 67.4877 68.9636 67.4877L69.0659 67.3495C69.3948 67.7115 69.9534 67.9326 70.5618 67.8699C71.2326 67.7993 71.7566 67.4023 71.9032 66.9248C71.5877 66.5048 70.945 66.2635 70.2718 66.3329C70.0679 66.3542 69.8844 66.406 69.7164 66.4741L70.2891 65.7047L70.3913 65.5666C70.7306 65.9072 71.321 66.1173 71.9147 66.0181C72.5781 65.9146 73.0735 65.492 73.1951 65.0053C72.8574 64.601 72.2068 64.388 71.5435 64.4916C71.3432 64.5235 71.1621 64.5823 71.0002 64.6622L71.5265 63.8615L71.6192 63.7187C71.9796 64.0461 72.5613 64.2197 73.1702 64.1074C73.3375 64.077 73.4962 64.0279 73.6394 63.9625C73.7755 63.8935 73.8985 63.8094 74.0059 63.7149C74.2161 63.5235 74.3561 63.2893 74.4028 63.042C74.0463 62.6521 73.3902 62.4687 72.7366 62.6005C72.5377 62.6418 72.3638 62.71 72.2078 62.7957L72.6889 61.9672L72.7757 61.8186C73.1489 62.1316 73.7349 62.2781 74.3365 62.1387C74.6672 62.0615 74.9511 61.9117 75.1624 61.718C75.2675 61.6223 75.3559 61.5126 75.4242 61.402C75.4866 61.2856 75.5252 61.1636 75.5415 61.0394C75.1651 60.6603 74.5105 60.51 73.8596 60.6665L73.8527 60.6808Z" fill="#DBE6EB"/>
<path d="M77.8897 41.7233L78.6363 39.6097L76.6687 38.532C73.4142 36.7508 67.425 32.9214 63.8848 27.2908C63.5997 26.8386 63.0382 25.7889 62.7289 25.1929L61.8239 23.4485L59.8936 23.8175C59.0633 23.975 58.0091 24.1588 57.5269 24.2094C50.9145 24.9119 44.1996 22.5785 40.7862 21.125L38.7218 20.2467L37.5239 22.1415C28.304 36.733 24.6517 57.3051 26.9797 64.225C29.5929 71.9961 34.6969 76.3201 35.2702 76.7889L35.753 77.1845L36.3626 77.3188C37.0857 77.479 43.6387 78.8098 51.362 76.0531C58.2379 73.5981 72.1343 57.9956 77.8873 41.7222L77.8897 41.7233ZM36.6517 76.0334L36.3475 75.9651L36.1055 75.7685C35.5632 75.3264 30.7287 71.227 28.233 63.8063C25.9956 57.1591 29.6989 37.002 38.642 22.8481L39.2397 21.9002L40.2707 22.3387C43.8004 23.8427 50.7559 26.2548 57.6665 25.518C58.223 25.4594 59.3491 25.2606 60.1405 25.1106L61.1062 24.9279L61.557 25.8007C61.8312 26.3298 62.4363 27.4711 62.766 27.9948C66.4662 33.876 72.666 37.8458 76.031 39.6893L77.0136 40.2276L76.6391 41.2839C71.0584 57.0689 57.5195 72.4547 50.9139 74.812C43.5409 77.4453 37.3287 76.1859 36.6458 76.0335L36.6517 76.0334Z" fill="#DBE6EB"/>
<path d="M34.3709 51.6419C34.3709 51.6419 34.3649 51.6302 34.3589 51.6244C34.3589 51.6244 32.8941 54.4867 34.7248 57.0439C36.558 59.6023 35.3104 62.174 35.3104 62.174C35.3104 62.174 31.3585 56.7632 31.4985 49.9199C31.6372 43.079 31.3342 43.4073 31.3342 43.4073C30.9264 43.8489 30.7113 45.0118 30.5243 45.5606C28.7822 50.6937 28.2534 55.9139 29.6318 61.0179C30.9547 65.9102 33.5793 69.8 36.1801 72.9889C36.1669 72.9738 37.6362 71.1726 37.7185 71.0453C39.6013 68.198 40.6917 64.1303 39.7042 60.9232C38.6737 57.575 36.1866 54.5145 34.3674 51.6431L34.3709 51.6419Z" fill="#DBE6EB"/>
<path d="M59.79 63.6417C54.5031 67.9851 47.8062 68.233 47.8062 68.233C47.8062 68.233 49.0537 65.6613 52.1978 65.5174C55.3418 65.3735 56.6807 62.4501 56.6807 62.4501C56.6748 62.4502 56.6678 62.4527 56.6595 62.4516C53.2772 62.8026 49.3339 62.7436 46.0675 64.0044C42.9375 65.2141 40.4152 68.5872 39.3469 71.8295C39.3014 71.9717 38.7962 74.2406 38.7726 74.2409C42.8871 74.3096 47.5656 73.9655 52.2279 71.9738C57.0922 69.8982 60.8624 66.2505 63.8156 61.7048C64.1308 61.2183 64.911 60.3295 65.0054 59.7358C65.0054 59.7358 65.0757 59.2947 59.7888 63.6382L59.79 63.6417Z" fill="#DBE6EB"/>
<path d="M45.4615 62.1506C46.4215 61.8725 47.4668 61.7338 48.541 61.664C50.246 61.5547 51.6088 60.3957 51.8639 58.7957C51.8681 58.7713 51.8709 58.7462 51.8751 58.7218C50.7584 59.1052 49.2181 59.3964 47.1005 59.4453C47.0967 59.4454 47.0929 59.4454 47.0876 59.4447C46.9207 59.4619 46.7514 59.4761 46.573 59.4858C45.5245 59.5417 44.7226 59.8909 44.1064 60.3944C44.1197 59.6003 43.8983 58.7528 43.2931 57.8947C43.1903 57.7486 43.0967 57.6069 43.0069 57.4651C43.0046 57.4621 43.0023 57.4591 42.9984 57.4554C41.7246 55.7612 41.0014 54.372 40.6112 53.2576C40.5947 53.276 40.5767 53.2937 40.5602 53.3121C39.4614 54.5029 39.3962 56.2913 40.3643 57.6974C40.9743 58.5843 41.5125 59.491 41.8882 60.4172C42.3 61.4326 42.4136 62.5412 42.3005 63.6305C42.2442 63.8788 42.203 64.1118 42.1713 64.3211C42.1927 64.3315 42.1713 64.3211 42.1912 64.3307C42.1926 64.3277 42.1957 64.3254 42.1987 64.3231C42.1972 64.3261 42.1972 64.3299 42.1973 64.3337C42.2187 64.3441 42.1973 64.3337 42.2171 64.3434C42.3619 64.1889 42.5201 64.0108 42.6796 63.8144C43.4666 63.052 44.4068 62.4527 45.4585 62.1492L45.4615 62.1506Z" fill="#DBE6EB"/>
<path d="M48.3982 57.3447C49.4993 56.3664 49.5988 54.6807 48.6205 53.5796C47.6422 52.4786 45.9565 52.379 44.8554 53.3574C43.7543 54.3357 43.6548 56.0214 44.6331 57.1224C45.6115 58.2235 47.2971 58.323 48.3982 57.3447Z" fill="#DBE6EB"/>
<path d="M40.1177 46.6571L42.093 39.7093L45.6362 29.2097L42.8755 27.8705L43.8273 25.9083L48.0826 27.9725L46.2208 34.454L42.6664 45.4414L45.4157 46.7751L44.4528 48.7601L40.1177 46.6571ZM34.9726 44.1612L42.4161 28.8173L44.2985 29.7305L37.1744 45.2293L34.9726 44.1612ZM43.9699 44.904L47.9159 36.3051L51.0829 29.428L53.3075 30.5072L45.875 45.8283L43.9699 44.904Z" fill="#DBE6EB"/>
<path d="M47.0937 50.0413L55.9484 31.7883L58.1616 32.862L49.3069 51.1149L47.0937 50.0413ZM54.5862 43.5151L55.5436 41.5415L58.5553 43.0025L57.5979 44.9761L54.5862 43.5151ZM58.4933 35.4609L59.4507 33.4873L62.6906 35.0591L61.7332 37.0327L58.4933 35.4609Z" fill="#DBE6EB"/>
<path d="M58.5814 55.7973C57.4699 55.1641 56.794 54.4464 56.5538 53.644C56.3172 52.834 56.4735 51.834 57.0225 50.6441C57.5312 49.5568 58.0087 48.5435 58.4549 47.6044C58.9011 46.6652 59.3382 45.7545 59.7661 44.8723C60.1978 43.9825 60.6407 43.0793 61.0947 42.1627C61.5524 41.2385 62.0434 40.2554 62.5678 39.2132C63.1625 38.0454 63.8493 37.3076 64.6282 36.9996C65.4108 36.684 66.3947 36.7667 67.58 37.2477L66.6613 39.1415C66.2518 39.0368 65.9081 39.0673 65.6303 39.2332C65.3526 39.3991 65.0918 39.7236 64.8481 40.2067C64.3011 41.2567 63.7931 42.2457 63.3241 43.1738C62.8551 44.1019 62.4029 45.0146 61.9676 45.9121C61.5322 46.8095 61.0915 47.7372 60.6456 48.6953C60.1996 49.6534 59.7225 50.695 59.2143 51.8201C58.982 52.3181 58.8868 52.7276 58.9284 53.0484C58.9738 53.3617 59.1643 53.6467 59.5001 53.9036L58.5814 55.7973ZM59.8933 56.4337L60.8175 54.5286C61.2234 54.6409 61.5576 54.6105 61.8202 54.4372C62.0904 54.2676 62.3473 53.9413 62.5911 53.4582C63.1567 52.3891 63.6758 51.3867 64.1485 50.451C64.6212 49.5153 65.0734 48.6025 65.5051 47.7127C65.9405 46.8153 66.3793 45.8913 66.8216 44.9409C67.2675 43.9828 67.7353 42.9508 68.2249 41.8448C68.4534 41.3543 68.5506 40.9505 68.5166 40.6334C68.4901 40.3199 68.3072 40.0386 67.9677 39.7893L68.8919 37.8842C69.9541 38.5028 70.5997 39.2153 70.8286 40.0216C71.0576 40.8279 70.905 41.8202 70.3709 42.9986C69.8922 44.0629 69.4316 45.0608 68.9891 45.9924C68.5579 46.92 68.1264 47.8287 67.6948 48.7186C67.2631 49.6084 66.8128 50.5174 66.3438 51.4455C65.886 52.3696 65.38 53.3643 64.8257 54.4295C64.2271 55.586 63.5421 56.3201 62.7709 56.6318C61.9996 56.9435 61.0404 56.8774 59.8933 56.4337Z" fill="#DBE6EB"/>
<path d="M8.42011 47.2693L8.26627 48.6018L0 47.6474L0.165242 46.2162L5.42897 43.0733L7.09512 42.178L7.10651 42.0793L5.60653 41.9686L0.720795 41.4045L0.874641 40.072L9.14091 41.0265L8.97567 42.4576L3.72142 45.6266L2.14592 46.4949L2.13452 46.5936L3.57139 46.7095L8.42011 47.2693Z" fill="#DBE6EB"/>
<path d="M11.0487 34.8151L10.6873 35.9903L9.1678 35.5231L9.10663 35.5952L7.08854 34.9747C6.59786 34.8238 6.22106 34.8379 5.95811 35.0169C5.68969 35.1856 5.46787 35.5548 5.29266 36.1246C5.12475 36.6707 5.09439 37.1075 5.20159 37.435C5.30879 37.7625 5.58003 37.9931 6.0153 38.127L6.06279 38.1416L5.67221 39.4118L5.62472 39.3972C5.17362 39.2585 4.81046 39.0169 4.53525 38.6724C4.25212 38.3254 4.07581 37.8987 4.00632 37.3923C3.93926 36.8779 4.00185 36.3081 4.1941 35.6829C4.38635 35.0577 4.65015 34.5801 4.98551 34.2501C5.31538 33.9097 5.69154 33.7006 6.114 33.6226C6.53888 33.5366 6.98875 33.5667 7.46359 33.7127L11.0487 34.8151ZM9.98471 38.6978C9.79733 39.3072 9.51313 39.7526 9.13211 40.0339C8.7456 40.3048 8.31098 40.3661 7.82822 40.2176C7.51957 40.1227 7.28548 39.9685 7.12595 39.7548C6.96094 39.5308 6.86288 39.2581 6.83177 38.9367C6.80067 38.6153 6.82099 38.2534 6.89275 37.851L7.45743 34.9582L8.21719 35.1918L7.74192 37.7093C7.67928 38.0539 7.67385 38.3251 7.72563 38.5229C7.77193 38.7104 7.90984 38.8394 8.13935 38.91C8.37677 38.983 8.58039 38.9547 8.7502 38.825C8.91454 38.6849 9.05267 38.4329 9.16461 38.0688C9.30332 37.6177 9.36838 37.209 9.35979 36.8425C9.34329 36.4736 9.24157 36.1565 9.05464 35.8911C8.86771 35.6257 8.58034 35.4334 8.19255 35.3142L8.2674 35.1553L9.24083 35.4546L9.18973 35.6208C9.63965 35.9324 9.93771 36.3575 10.0839 36.8962C10.2246 37.4246 10.1916 38.0251 9.98471 38.6978Z" fill="#DBE6EB"/>
<path d="M13.2558 30.059L12.6488 31.3381C12.3648 31.9366 11.9935 32.3423 11.5349 32.5554C11.0799 32.7611 10.5158 32.7041 9.84254 32.3846L4.9281 30.0523L5.49788 28.8517L10.345 31.1521C10.6891 31.3154 10.96 31.3432 11.1578 31.2354C11.3481 31.1241 11.5249 30.8964 11.6882 30.5523L12.1675 29.5425L13.2558 30.059ZM8.6892 27.8918L6.71362 32.0544L5.7038 31.5752L7.67938 27.4125L8.6892 27.8918Z" fill="#DBE6EB"/>
<path d="M14.5462 27.8826L13.8618 29.0362L8.5531 25.8868L9.23748 24.7332L14.5462 27.8826ZM8.61795 24.3656L7.93358 25.5192L6.70521 24.7905L7.38959 23.6369L8.61795 24.3656Z" fill="#DBE6EB"/>
<path d="M17.0784 24.4072C16.6668 24.9472 16.1976 25.3443 15.6707 25.5986C15.1422 25.8413 14.5992 25.9323 14.0416 25.8717C13.4824 25.7995 12.9526 25.5727 12.4521 25.1913C11.9384 24.7998 11.5759 24.3466 11.3646 23.8316C11.1583 23.31 11.1054 22.7648 11.2058 22.1959C11.3047 21.6154 11.5599 21.0552 11.9714 20.5152C12.393 19.962 12.868 19.5641 13.3965 19.3214C13.9184 19.0737 14.4556 18.9834 15.0082 19.0506C15.5658 19.1112 16.1014 19.3372 16.6151 19.7287C17.1156 20.1101 17.4723 20.5641 17.6851 21.0907C17.8965 21.6057 17.9552 22.1502 17.8614 22.7241C17.7609 23.293 17.4999 23.854 17.0784 24.4072ZM16.1301 23.6845C16.5868 23.0852 16.7805 22.551 16.7112 22.0818C16.6354 21.6076 16.3374 21.1723 15.8171 20.7758C15.2969 20.3793 14.7981 20.2074 14.3207 20.26C13.8368 20.3076 13.3665 20.6311 12.9098 21.2303C12.4581 21.823 12.2735 22.359 12.3559 22.8382C12.4318 23.3124 12.7298 23.7477 13.25 24.1442C13.7703 24.5407 14.2691 24.7126 14.7464 24.66C15.2172 24.6023 15.6784 24.2772 16.1301 23.6845Z" fill="#DBE6EB"/>
<path d="M23.9472 17.0284L22.9631 17.9399L20.6846 15.4796C20.2907 15.0544 19.8921 14.8311 19.4886 14.8098C19.0912 14.7829 18.6556 14.9888 18.1818 15.4277C17.6898 15.8834 17.4435 16.3485 17.4428 16.8231C17.4427 17.2859 17.6705 17.7634 18.1262 18.2554L17.9615 18.4249L17.0889 17.5741L17.2893 17.3884C17.1016 17.0883 16.9766 16.7583 16.9142 16.3985C16.8523 16.027 16.8872 15.6505 17.019 15.2688C17.1513 14.8755 17.4088 14.5016 17.7915 14.1472C18.2106 13.759 18.6387 13.5205 19.0757 13.4318C19.5126 13.3431 19.9301 13.3796 20.3282 13.5413C20.7324 13.6974 21.0976 13.9516 21.4239 14.304L23.9472 17.0284ZM20.2022 20.497L19.2181 21.4084L15.0238 16.8798L15.9259 16.0443L17.2424 17.4657L17.3666 17.4353L20.2022 20.497Z" fill="#DBE6EB"/>
<path d="M29.8308 13.0964L28.7956 13.7599L27.9378 12.4215L27.8445 12.437L26.7052 10.6595C26.4282 10.2273 26.1315 9.99457 25.8151 9.96131C25.5013 9.91661 25.0934 10.0551 24.5915 10.3768C24.1105 10.6851 23.8051 10.9988 23.6753 11.3181C23.5456 11.6373 23.6035 11.9886 23.8493 12.372L23.8761 12.4138L22.7573 13.1309L22.7305 13.0891C22.4758 12.6917 22.3547 12.2727 22.3673 11.8319C22.3753 11.3842 22.5165 10.9446 22.7907 10.5132C23.0718 10.0773 23.4878 9.68281 24.0385 9.32985C24.5891 8.97688 25.0991 8.7828 25.5683 8.74761C26.0399 8.70099 26.4622 8.78439 26.835 8.99782C27.2148 9.20677 27.5387 9.52038 27.8068 9.93863L29.8308 13.0964ZM26.51 15.3724C25.9733 15.7164 25.4686 15.8727 24.996 15.8412C24.526 15.7983 24.1547 15.5642 23.8821 15.139C23.7079 14.8671 23.6289 14.5982 23.6452 14.332C23.6639 14.0544 23.7653 13.783 23.9492 13.5175C24.1332 13.2521 24.3825 12.9891 24.6973 12.7283L26.9974 10.8852L27.4263 11.5544L25.4369 13.1688C25.1665 13.3913 24.9871 13.5948 24.8988 13.7793C24.813 13.9523 24.8349 14.1399 24.9645 14.342C25.0985 14.5511 25.2722 14.6611 25.4856 14.6718C25.7016 14.6711 25.9698 14.568 26.2905 14.3625C26.6878 14.1078 27.0016 13.8378 27.2318 13.5526C27.4576 13.2604 27.5849 12.9526 27.6137 12.6293C27.6424 12.3059 27.5474 11.9735 27.3284 11.6319L27.4882 11.559L28.0378 12.4164L27.8914 12.5102C28.0335 13.0388 27.9863 13.5558 27.7498 14.0615C27.5158 14.5556 27.1025 14.9926 26.51 15.3724Z" fill="#DBE6EB"/>
<path d="M32.2771 11.9322L31.0723 12.5218L27.4146 5.04759L28.6194 4.458L32.2771 11.9322Z" fill="#DBE6EB"/>
<path d="M37.1423 9.93608L35.8466 10.2827L33.6965 2.24405L34.9923 1.89747L37.1423 9.93608ZM41.1983 5.39292L35.3793 6.94932L35.0712 5.79752L40.8902 4.24112L41.1983 5.39292ZM40.4027 1.69742L34.4037 3.30195L34.0924 2.13815L40.0914 0.533622L40.4027 1.69742Z" fill="#DBE6EB"/>
<path d="M44.9879 8.24232L43.6593 8.42655L42.8115 2.31247L44.1401 2.12824L44.9879 8.24232ZM44.0412 1.41473L42.7126 1.59896L42.5164 0.184232L43.845 0L44.0412 1.41473Z" fill="#DBE6EB"/>
<path d="M52.3385 7.87955L50.9974 7.90301L50.9387 4.55022C50.9286 3.97072 50.7802 3.53856 50.4937 3.25374C50.2154 2.96877 49.7534 2.83193 49.1077 2.84323C48.4372 2.85496 47.9435 3.0375 47.6267 3.39085C47.3181 3.73577 47.1696 4.24352 47.1813 4.91408L46.9456 4.93062L46.8622 3.71477L47.1354 3.70999C47.1956 3.36113 47.3223 3.03181 47.5156 2.72203C47.7171 2.40383 47.9941 2.14641 48.3468 1.94977C48.7076 1.74471 49.1487 1.63762 49.6703 1.6285C50.2415 1.6185 50.7195 1.72607 51.1044 1.95121C51.4893 2.17634 51.7762 2.48186 51.9651 2.86777C52.1623 3.25352 52.2651 3.68648 52.2735 4.16663L52.3385 7.87955ZM47.2348 7.96885L45.8937 7.99231L45.7857 1.82068L47.0151 1.79917L47.0489 3.73634L47.1618 3.79648L47.2348 7.96885Z" fill="#DBE6EB"/>
<path d="M59.1726 8.82647L57.9579 8.63571L58.2046 7.06524L58.1245 7.01495L58.452 4.92917C58.5317 4.42204 58.4642 4.05105 58.2497 3.8162C58.0446 3.57446 57.6476 3.40735 57.0587 3.31486C56.4943 3.22622 56.0576 3.25822 55.7487 3.41085C55.4397 3.56348 55.2499 3.86474 55.1793 4.31461L55.1716 4.36369L53.8588 4.15751L53.8665 4.10844C53.9397 3.6422 54.1273 3.24841 54.4292 2.92704C54.7324 2.5975 55.1297 2.36237 55.6211 2.22164C56.1208 2.08219 56.6937 2.06321 57.3399 2.16469C57.986 2.26617 58.4963 2.45945 58.8706 2.74453C59.2543 3.02271 59.5148 3.36534 59.652 3.77243C59.7974 4.1808 59.8316 4.63038 59.7545 5.12115L59.1726 8.82647ZM55.1781 8.32486C54.5483 8.22595 54.0671 8.00789 53.7345 7.6707C53.4114 7.32661 53.289 6.90509 53.3673 6.40614C53.4174 6.08713 53.5369 5.8335 53.7257 5.64524C53.924 5.45009 54.18 5.31429 54.4937 5.23784C54.8074 5.16139 55.1686 5.1301 55.5771 5.14397L58.5208 5.29198L58.3975 6.07721L55.8379 5.9644C55.488 5.95134 55.2188 5.98449 55.0303 6.06385C54.8513 6.13631 54.7432 6.29115 54.7059 6.52835C54.6674 6.77374 54.7243 6.97127 54.8769 7.12094C55.0388 7.26371 55.3079 7.36464 55.6842 7.42373C56.1504 7.49696 56.5643 7.50329 56.9258 7.44272C57.2886 7.37398 57.5881 7.22825 57.8242 7.00551C58.0604 6.78278 58.2099 6.47101 58.2728 6.07021L58.4408 6.12173L58.2828 7.12781L58.111 7.10083C57.8665 7.59045 57.488 7.94588 56.9755 8.16712C56.4725 8.38147 55.8733 8.43405 55.1781 8.32486Z" fill="#DBE6EB"/>
<path d="M66.4275 11.1283L65.1597 10.6906L66.2539 7.52088C66.4431 6.97302 66.4519 6.5162 66.2803 6.1504C66.1166 5.78731 65.7295 5.50039 65.1191 5.28964C64.4851 5.07078 63.9588 5.07302 63.5401 5.29636C63.1319 5.51457 62.8184 5.94065 62.5995 6.5746L62.3724 6.50933L62.7109 5.33857L62.9692 5.42774C63.1453 5.12064 63.3772 4.85472 63.665 4.62999C63.9634 4.40013 64.3119 4.25329 64.7106 4.18946C65.1198 4.12051 65.5709 4.17114 66.064 4.34137C66.604 4.5278 67.0162 4.79273 67.3006 5.13616C67.5849 5.47959 67.7497 5.86496 67.7949 6.29224C67.8479 6.72224 67.7961 7.1642 67.6394 7.61814L66.4275 11.1283ZM61.6025 9.46258L60.3346 9.02487L62.3489 3.1902L63.5111 3.59144L62.8789 5.42284L62.9643 5.51802L61.6025 9.46258Z" fill="#DBE6EB"/>
<path d="M70.2757 13.2572C69.6827 12.9267 69.2301 12.5227 68.9179 12.0454C68.6097 11.5609 68.4496 11.0403 68.4375 10.4838C68.4367 9.92407 68.5894 9.36937 68.8958 8.81972C69.2102 8.2556 69.6036 7.83031 70.0761 7.54386C70.5558 7.26143 71.0807 7.12745 71.6508 7.1419C72.225 7.14912 72.8087 7.318 73.4017 7.64853C73.9441 7.95085 74.3727 8.31293 74.6874 8.73477C75.002 9.1566 75.184 9.60399 75.2332 10.0769C75.2937 10.5467 75.1969 11.0094 74.943 11.465L74.8825 11.5735L73.7217 10.9265L73.758 10.8614C73.9918 10.4419 74.0205 10.0503 73.844 9.68659C73.6717 9.31562 73.3215 8.983 72.7935 8.68874C72.186 8.35015 71.6586 8.25051 71.2113 8.38983C70.768 8.52191 70.3831 8.88087 70.0565 9.46668C69.7341 10.0453 69.6312 10.5614 69.748 11.0152C69.8689 11.4617 70.233 11.8542 70.8405 12.1928C71.3685 12.4871 71.8335 12.6136 72.2357 12.5723C72.6419 12.5238 72.9619 12.2898 73.1957 11.8703L73.238 11.7944L74.3988 12.4413L74.3323 12.5607C74.0824 13.0091 73.7397 13.3347 73.3044 13.5376C72.8763 13.7445 72.4001 13.8251 71.8758 13.7793C71.3515 13.7336 70.8182 13.5595 70.2757 13.2572Z" fill="#DBE6EB"/>
<path d="M75.9765 17.0604C75.4526 16.6417 75.071 16.1776 74.8316 15.6683C74.5921 15.1589 74.5124 14.6287 74.5923 14.0779C74.6787 13.5321 74.9339 12.9941 75.3578 12.4638C75.761 11.9593 76.2192 11.6048 76.7325 11.4003C77.2523 11.2009 77.7889 11.1528 78.3423 11.256C78.901 11.3528 79.4423 11.6105 79.9661 12.0293C80.4641 12.4273 80.8283 12.8668 81.0587 13.3477C81.3007 13.8274 81.3882 14.3213 81.3212 14.8295C81.2658 15.3364 81.0417 15.8356 80.6488 16.3272C80.5816 16.4113 80.5137 16.4895 80.4452 16.562C80.3819 16.6279 80.3153 16.6913 80.2455 16.7521L75.8411 13.2316L76.3063 12.6496L80.022 15.6195L79.4634 15.7613C79.5216 15.7018 79.5739 15.643 79.6205 15.5847C79.6721 15.5201 79.7238 15.4554 79.7755 15.3907C80.1322 14.9445 80.2665 14.5112 80.1784 14.091C80.102 13.6695 79.805 13.2519 79.2876 12.8384C78.712 12.3783 78.1953 12.1826 77.7376 12.2513C77.2799 12.3201 76.852 12.6034 76.4539 13.1014L76.2523 13.3537C75.8491 13.8581 75.6644 14.3412 75.6982 14.8028C75.732 15.2644 76.04 15.7279 76.6221 16.1931C77.1265 16.5964 77.5507 16.8082 77.8947 16.8288C78.2503 16.848 78.5419 16.7154 78.7693 16.4308L78.8314 16.3532L79.8791 17.1907L79.8093 17.278C79.5353 17.6207 79.1856 17.8394 78.7603 17.934C78.3465 18.0273 77.8959 18.001 77.4083 17.8551C76.9324 17.7078 76.4551 17.443 75.9765 17.0604Z" fill="#DBE6EB"/>
<path d="M83.5901 24.9312C83.078 24.2287 82.7698 23.5107 82.6655 22.7773C82.5728 22.0456 82.6768 21.3449 82.9774 20.6749C83.2895 20.0068 83.7969 19.4167 84.4995 18.9046C85.202 18.3925 85.9157 18.0925 86.6406 18.0047C87.3771 17.9187 88.0761 18.0342 88.7375 18.3512C89.4105 18.6701 90.0031 19.1808 90.5152 19.8834C91.037 20.5993 91.3443 21.3231 91.437 22.0547C91.5364 22.7814 91.43 23.4788 91.1179 24.147C90.8173 24.8169 90.3157 25.4079 89.6131 25.92C88.9106 26.4321 88.1911 26.7312 87.4546 26.8172C86.7297 26.905 86.0331 26.7928 85.365 26.4807C84.7036 26.1636 84.1119 25.6471 83.5901 24.9312ZM84.6339 24.1704C85.0192 24.699 85.4223 25.0762 85.8431 25.3022C86.2756 25.5301 86.7325 25.6017 87.214 25.5172C87.7021 25.4278 88.2238 25.1807 88.7791 24.7759C89.3412 24.3662 89.7361 23.9451 89.9639 23.5127C90.1917 23.0802 90.26 22.6257 90.1688 22.1492C90.0892 21.6744 89.8567 21.1728 89.4714 20.6442C89.0861 20.1156 88.6772 19.7374 88.2448 19.5096C87.8239 19.2836 87.3727 19.2129 86.8913 19.2974C86.4148 19.3886 85.8955 19.6391 85.3334 20.0487C84.7781 20.4535 84.3807 20.8713 84.1414 21.3019C83.9135 21.7344 83.8395 22.1879 83.9191 22.6627C84.0103 23.1392 84.2486 23.6418 84.6339 24.1704Z" fill="#DBE6EB"/>
<path d="M87.104 30.3248L86.4704 29.1426L93.8045 25.2116L94.4382 26.3939L87.104 30.3248Z" fill="#DBE6EB"/>
<path d="M86.0769 32.8804L85.7514 32.0608L86.8826 31.6116L87.3273 32.7313C87.4281 32.9852 87.5453 33.1569 87.6788 33.2464C87.8078 33.3467 87.9852 33.4009 88.2112 33.4092L89.1267 33.4599L88.4368 33.5735L93.18 28.3223L93.7347 29.719L91.2695 32.3951L90.1206 33.5062L90.1572 33.5985L91.7578 33.5909L95.3299 33.7359L95.8754 35.1095L88.3281 34.6456C87.9284 34.6262 87.591 34.5508 87.3162 34.4194C87.0336 34.2911 86.7973 34.0999 86.6073 33.8457C86.4095 33.5946 86.2327 33.2728 86.0769 32.8804Z" fill="#DBE6EB"/>
<path d="M92.1334 48.1963L91.9223 46.8843L95.233 46.3514C95.8379 46.254 96.2548 46.0569 96.4838 45.7601C96.7128 45.4633 96.7792 45.0165 96.6832 44.4197C96.5792 43.774 96.3379 43.3432 95.9594 43.1273C95.5903 42.9184 95.0665 42.8685 94.388 42.9777L94.3382 42.7467L95.5281 42.4797L95.5715 42.7495C95.9322 42.7501 96.2783 42.816 96.6097 42.9472C96.9411 43.0783 97.2278 43.2964 97.4697 43.6013C97.7199 43.9048 97.8857 44.31 97.9673 44.8169C98.0528 45.3482 98.0135 45.8074 97.8494 46.1944C97.6853 46.5815 97.4249 46.8917 97.0683 47.1252C96.7131 47.3669 96.2902 47.5272 95.7997 47.6062L92.1334 48.1963ZM90.6117 38.7425L90.3985 37.4182L96.4927 36.4372L96.6881 37.6512L94.7752 37.9591L94.7317 38.0793L90.6117 38.7425ZM91.3716 43.4633L91.1604 42.1513L94.4711 41.6183C95.076 41.521 95.493 41.3239 95.7219 41.027C95.9509 40.7302 96.018 40.2875 95.9233 39.6989C95.818 39.045 95.5767 38.6142 95.1995 38.4065C94.8304 38.1976 94.3066 38.1477 93.6281 38.2569L93.5783 38.0259L94.8192 37.7633L94.8606 38.0208C95.2132 38.0227 95.5504 38.0859 95.8723 38.2102C96.1942 38.3345 96.4755 38.545 96.7162 38.8417C96.9568 39.1384 97.1179 39.5402 97.1995 40.047C97.285 40.5784 97.241 41.0341 97.0674 41.4143C96.9019 41.7931 96.6409 42.0993 96.2843 42.3328C95.9278 42.5663 95.5083 42.7219 95.026 42.7996L95.0379 42.8731L91.3716 43.4633Z" fill="#DBE6EB"/>
<path d="M91.5906 52.7925C91.6365 52.1068 91.8436 51.5564 92.2116 51.1413C92.5797 50.7261 93.0487 50.4754 93.6188 50.3891L93.6379 50.1041L94.8771 50.1872L94.8613 50.4226C94.4483 50.395 94.0913 50.4582 93.7906 50.6123C93.4981 50.7669 93.2711 50.9965 93.1096 51.301C92.9558 51.6144 92.8645 51.9858 92.8357 52.4154C92.8058 52.8615 92.8426 53.2415 92.946 53.5555C93.0571 53.8783 93.2517 54.132 93.5298 54.3166C93.8079 54.5012 94.1906 54.6098 94.678 54.6425C95.1737 54.6757 95.5717 54.6194 95.8719 54.4736C96.1721 54.3278 96.3947 54.102 96.5396 53.7964C96.6841 53.499 96.7707 53.1356 96.7995 52.706C96.8454 52.0203 96.7156 51.4805 96.4101 51.0866C96.1128 50.6932 95.6337 50.4744 94.9728 50.4301L94.9886 50.1947L96.3575 50.1993L96.336 50.5215C96.8977 50.6836 97.3252 50.9903 97.6186 51.4414C97.9197 51.9014 98.0462 52.4908 97.998 53.2095C97.9554 53.8457 97.7828 54.3776 97.4803 54.8055C97.186 55.2338 96.7915 55.5476 96.2969 55.7468C95.8022 55.946 95.2327 56.024 94.5883 55.9808C93.9605 55.9388 93.4106 55.7857 92.9387 55.5217C92.4745 55.2666 92.121 54.9068 91.8783 54.4424C91.6433 53.9868 91.5474 53.4369 91.5906 52.7925ZM89.7807 50.0821L89.8704 48.7438L98.1357 49.2978L98.0535 50.5246L96.1204 50.395L95.9518 50.4957L89.7807 50.0821Z" fill="#DBE6EB"/>
<path d="M90.9861 58.0291L91.2386 56.7118L97.3009 57.8734L97.0484 59.1908L90.9861 58.0291ZM97.7559 59.3263L98.0083 58.009L99.4111 58.2778L99.1586 59.5951L97.7559 59.3263Z" fill="#DBE6EB"/>
<path d="M89.1067 64.7024L89.477 63.5299L90.9929 64.0086L91.0546 63.9369L93.0679 64.5727C93.5574 64.7273 93.9343 64.7161 94.1986 64.5391C94.4683 64.3724 94.6929 64.0049 94.8725 63.4364C95.0445 62.8916 95.0782 62.4551 94.9734 62.1268C94.8687 61.7985 94.5992 61.5658 94.165 61.4287L94.1176 61.4137L94.5178 60.1465L94.5652 60.1615C95.0152 60.3036 95.3765 60.5479 95.6491 60.8945C95.9296 61.2436 96.1027 61.6716 96.1684 62.1785C96.2315 62.6934 96.1646 63.2627 95.9676 63.8865C95.7707 64.5102 95.5033 64.9858 95.1654 65.3132C94.833 65.6511 94.4552 65.8574 94.0322 65.9322C93.6067 66.0149 93.1571 65.9814 92.6833 65.8318L89.1067 64.7024ZM90.2 60.8278C90.392 60.2198 90.6796 59.7766 91.0627 59.4982C91.4512 59.2302 91.8863 59.1722 92.3679 59.3243C92.6759 59.4216 92.9088 59.5776 93.0667 59.7924C93.23 60.0177 93.326 60.2911 93.3547 60.6127C93.3833 60.9344 93.3603 61.2961 93.2855 61.6979L92.6989 64.5864L91.941 64.3471L92.4353 61.8332C92.5005 61.4891 92.508 61.218 92.4577 61.0198C92.4128 60.8319 92.2759 60.7019 92.0469 60.6296C91.8101 60.5548 91.6062 60.5816 91.4354 60.71C91.2701 60.8488 91.13 61.0998 91.0153 61.4629C90.8732 61.913 90.8051 62.3213 90.8109 62.6878C90.8246 63.0568 90.9239 63.3747 91.1088 63.6415C91.2937 63.9083 91.5796 64.1027 91.9665 64.2249L91.8905 64.3832L90.9193 64.0766L90.9717 63.9107C90.5241 63.5958 90.2293 63.1684 90.0872 62.6286C89.9505 62.0992 89.9881 61.4989 90.2 60.8278Z" fill="#DBE6EB"/>
<path d="M87.4536 67.9622C87.7543 67.3813 88.1269 66.9496 88.5716 66.667C89.0198 66.3955 89.5104 66.2672 90.0435 66.2821C90.5839 66.3008 91.1335 66.4548 91.6923 66.7441C92.2658 67.041 92.7126 67.4028 93.0324 67.8294C93.3523 68.2561 93.5291 68.7251 93.5626 69.2367C93.6035 69.752 93.4812 70.2854 93.1958 70.8368C92.8608 71.4839 92.4455 71.9169 91.9499 72.1358C91.4543 72.3548 90.9464 72.3995 90.426 72.27L90.2833 72.5457L89.059 71.912L89.1675 71.7024C89.7484 72.0031 90.2679 72.0622 90.7259 71.8798C91.1913 71.7012 91.582 71.3067 91.8979 70.6964C92.092 70.3214 92.2026 69.9638 92.2296 69.6235C92.2639 69.2869 92.1905 68.9785 92.0093 68.6983C91.8242 68.4253 91.5111 68.1747 91.07 67.9463C90.6361 67.7217 90.2544 67.6127 89.9247 67.6192C89.5912 67.633 89.297 67.7511 89.0421 67.9734C88.7871 68.1957 88.5588 68.5017 88.3571 68.8914C88.1553 69.2811 88.041 69.6461 88.014 69.9865C87.9905 70.3379 88.0694 70.6538 88.2506 70.9341C88.4281 71.2217 88.7043 71.4626 89.0793 71.6567L88.9708 71.8663L87.8279 71.3725L87.9649 71.1078C87.4779 70.7159 87.1901 70.2452 87.1015 69.6959C87.0165 69.1578 87.1338 68.5798 87.4536 67.9622ZM85.7825 71.4605L86.3477 70.3686L88.0683 71.2593L88.2631 71.2342L93.7888 74.0947L93.1722 75.2859L85.7825 71.4605Z" fill="#DBE6EB"/>
</svg>
